<svg width="44" height="44" viewBox="0 0 44 44" fill="none" xmlns="http://www.w3.org/2000/svg">
<path d="M4.80452 25.4675C3.77194 26.0624 3.24903 26.8794 3.46935 28.0134C3.59134 27.4752 3.87974 26.9929 4.2854 26.5477C4.18989 27.1514 3.99226 27.6797 3.65185 28.1073C4.6589 27.6024 4.97094 26.6788 4.80452 25.4675ZM10.2719 35.1039C9.76885 36.2115 9.80478 37.1879 10.6227 37.9775C10.4194 37.4658 10.3797 36.9003 10.4601 36.2946C10.722 36.8416 10.8601 37.3914 10.8241 37.9433C11.3574 36.9257 11.0898 35.9874 10.2719 35.1039ZM8.97267 33.7723C8.36182 34.8202 8.29941 35.7966 9.03413 36.6684C8.88283 36.1381 8.9008 35.5706 9.04075 34.9777C9.24689 35.5501 9.32915 36.1107 9.23837 36.6566C9.87003 35.7017 9.69793 34.739 8.97267 33.7723ZM6.80727 30.7294C6.00069 31.6237 5.74443 32.5659 6.29098 33.5766C6.24843 33.0258 6.37892 32.4739 6.63423 31.9231C6.72217 32.5278 6.69002 33.0943 6.49239 33.6089C7.30087 32.8076 7.32356 31.8301 6.80727 30.7294ZM7.81338 32.3096C7.1004 33.286 6.9406 34.2498 7.58454 35.1969C7.4862 34.6529 7.56185 34.0913 7.76042 33.515C7.90793 34.1069 7.93347 34.6744 7.78785 35.2057C8.51217 34.3241 8.43746 33.3477 7.81338 32.3096ZM5.96476 29.0505C5.07307 29.8528 4.72415 30.7627 5.16574 31.8272C5.17803 31.2734 5.36336 30.7402 5.67257 30.2187C5.69904 30.8302 5.61111 31.3908 5.36242 31.88C6.24748 31.1707 6.36852 30.1991 5.96476 29.0505ZM5.29433 27.2903C4.327 27.9938 3.8892 28.8607 4.2211 29.9653C4.28918 29.4154 4.52746 28.9057 4.88679 28.4194C4.8518 29.0299 4.70807 29.5769 4.4121 30.0377C5.36336 29.4291 5.58085 28.4771 5.29433 27.2903ZM12.3352 39.1095C12.0808 38.6223 11.9853 38.0636 12.0042 37.4531C12.32 37.9697 12.512 38.5009 12.5318 39.0537C12.9602 37.9843 12.5999 37.0803 11.6978 36.2897C11.3083 37.4443 11.4416 38.4119 12.3352 39.1095ZM4.84329 32.1961C4.30903 32.1824 3.79275 31.9906 3.28969 31.6716C3.87974 31.6442 4.42061 31.7352 4.89435 31.9916C4.20975 31.0768 3.27173 30.9506 2.16066 31.3683C2.93699 32.292 3.81638 32.652 4.84329 32.1961ZM4.50004 23.6017C3.41356 24.0831 2.81217 24.8384 2.91713 25.992C3.09301 25.4695 3.42775 25.0194 3.87596 24.6212C3.71993 25.2112 3.4703 25.7161 3.08923 26.1045C4.14167 25.7102 4.54449 24.8237 4.50004 23.6017ZM10.6322 39.9373C11.1314 39.6105 11.6449 39.4118 12.1791 39.3913C11.1456 38.9481 10.271 39.3209 9.50692 40.2543C10.6237 40.6574 11.5598 40.5194 12.2321 39.5938C11.7621 39.858 11.2222 39.9568 10.6322 39.9373ZM6.00731 33.9787C5.474 34.0237 4.94163 33.8868 4.40927 33.6236C4.99364 33.5336 5.54113 33.5658 6.03851 33.7703C5.26502 32.9348 4.32038 32.9103 3.25754 33.4445C4.12086 34.2781 5.03052 34.5423 6.00731 33.9787ZM3.86461 30.298C3.33414 30.2285 2.83959 29.9819 2.37153 29.6092C2.96063 29.6444 3.4911 29.7941 3.93553 30.1003C3.34643 29.117 2.42637 28.891 1.27938 29.1884C1.95925 30.1893 2.79704 30.6414 3.86461 30.298ZM7.34342 35.6264C6.81767 35.7281 6.27396 35.6508 5.71796 35.4454C6.29004 35.2918 6.83753 35.2663 7.35193 35.416C6.49996 34.6666 5.55721 34.7448 4.553 35.3906C5.49669 36.1273 6.42904 36.2927 7.34342 35.6264ZM7.20253 37.1155C7.75664 36.9012 8.29846 36.8171 8.82515 36.912C7.90226 36.2574 6.97181 36.4365 6.03851 37.1869C7.05029 37.819 7.99398 37.8836 8.8365 37.1224C8.32494 37.2799 7.7765 37.2603 7.20253 37.1155ZM8.84595 38.6184C9.37548 38.3473 9.90596 38.2045 10.4393 38.2417C9.45586 37.6898 8.54904 37.9667 7.69518 38.814C8.76558 39.3346 9.71022 39.2974 10.4724 38.4501C9.97877 38.6614 9.43127 38.7015 8.84595 38.6184ZM3.08166 28.3059C2.56065 28.1787 2.09447 27.8813 1.66518 27.4606C2.2486 27.5594 2.75922 27.7648 3.17244 28.1161C2.68452 27.0751 1.79189 26.7522 0.621251 26.9244C1.19617 27.9938 1.98478 28.5329 3.08166 28.3059ZM6.33826 9.32376C6.71555 9.16917 7.13066 9.14569 7.5732 9.21516C7.16943 9.41475 6.76472 9.51651 6.36095 9.48128C7.1004 9.91081 7.79163 9.71219 8.44786 9.08111C7.64222 8.67409 6.92547 8.69073 6.33826 9.32376ZM3.64429 20.687C3.3748 21.231 3.02966 21.6713 2.57861 21.9697C3.68589 21.8093 4.25703 21.0285 4.45749 19.8231C3.2982 20.0618 2.55876 20.6723 2.43205 21.822C2.71005 21.3494 3.12611 20.9805 3.64429 20.687ZM7.71693 10.2298C6.80349 9.85699 6.02244 9.93918 5.43334 10.6828C5.83237 10.4812 6.28342 10.4176 6.77323 10.4538C6.34866 10.7092 5.91559 10.855 5.47116 10.854C6.31462 11.2571 7.05218 10.9773 7.71693 10.2298ZM7.29898 8.10368C7.65074 7.99116 8.02897 7.99997 8.42612 8.09487C8.04599 8.24653 7.67248 8.30915 7.30843 8.24848C7.94954 8.69268 8.5897 8.56255 9.22797 8.03715C8.52635 7.6086 7.87484 7.5724 7.29898 8.10368ZM2.50107 26.2405C1.99613 26.0585 1.56211 25.7121 1.17725 25.2484C1.74744 25.4098 2.23537 25.6681 2.60982 26.0624C2.22875 24.9734 1.37394 24.5576 0.191954 24.6026C0.658128 25.7268 1.38812 26.3491 2.50107 26.2405ZM8.30981 7.00199C8.63131 6.92665 8.96888 6.95992 9.31686 7.07243C8.96699 7.18104 8.63036 7.21137 8.30886 7.13212C8.85257 7.5724 9.43317 7.50098 10.0364 7.07733C9.43695 6.64585 8.85825 6.56758 8.30981 7.00199ZM9.22324 6.22317C9.58824 6.55975 10.0005 6.53529 10.4459 6.26427C10.0412 5.93161 9.63552 5.84942 9.22892 6.1312C9.45964 6.09305 9.69698 6.13218 9.93716 6.22807C9.68564 6.28775 9.4464 6.29362 9.22324 6.22317ZM7.0588 11.5027C6.02244 11.1818 5.17236 11.3471 4.59271 12.2208C5.01255 11.9606 5.50236 11.8481 6.04324 11.8402C5.59976 12.1602 5.13831 12.3637 4.65039 12.4048C5.61205 12.7658 6.39689 12.3881 7.0588 11.5027ZM2.73085 24.0508C3.81638 23.771 4.30525 22.9344 4.38468 21.7134C3.25565 22.0764 2.58145 22.7622 2.57105 23.9197C2.79799 23.4187 3.17622 23.0068 3.66225 22.6595C3.44761 23.2299 3.1488 23.7054 2.73085 24.0508ZM3.87596 13.8303C4.27216 13.5329 4.75062 13.3763 5.28866 13.3206C4.87449 13.6796 4.43102 13.9242 3.94877 14.0094C4.93785 14.2814 5.6877 13.8342 6.27207 12.893C5.21207 12.666 4.37901 12.9077 3.87596 13.8303ZM2.79421 17.6168C3.15164 17.2215 3.62254 16.9554 4.17571 16.7832C3.81166 17.2469 3.39465 17.5962 2.90578 17.788C3.99794 17.8653 4.69578 17.2371 5.12318 16.1247C3.96673 16.113 3.14029 16.5425 2.79421 17.6168ZM3.8249 18.7224C3.50151 19.2341 3.11476 19.6362 2.63724 19.8847C3.75492 19.8436 4.40076 19.1284 4.72131 17.9504C3.54405 18.0639 2.74787 18.5913 2.50675 19.7223C2.82825 19.281 3.28024 18.9591 3.8249 18.7224ZM3.29631 15.5533C3.68306 15.205 4.16814 14.9946 4.72509 14.885C4.32416 15.2989 3.88352 15.5973 3.38803 15.7324C4.4452 15.9222 5.18749 15.3831 5.71323 14.344C4.58704 14.209 3.73885 14.5416 3.29631 15.5533ZM10.148 5.18508C10.0034 5.40424 9.83126 5.57449 9.62228 5.67722C10.1074 5.67037 10.3939 5.36706 10.5433 4.85927C10.0317 4.89645 9.68185 5.11757 9.56649 5.6058C9.71022 5.41696 9.90879 5.28194 10.148 5.18508ZM2.03679 19.828C1.61033 19.4943 1.29924 19.0267 1.07135 18.4631C1.56589 18.7967 1.95453 19.1979 2.19376 19.692C2.15404 18.5355 1.46282 17.8672 0.325282 17.5365C0.434024 18.7547 0.944641 19.5785 2.03679 19.828ZM2.32709 17.6706C1.94412 17.3007 1.68787 16.8135 1.5205 16.2421C1.96871 16.6188 2.30723 17.0503 2.49256 17.5561C2.56727 16.426 1.9602 15.703 0.885068 15.2617C0.872776 16.4583 1.28883 17.3135 2.32709 17.6706ZM2.83487 15.5553C2.49824 15.1561 2.29588 14.6532 2.18903 14.0769C2.58901 14.4917 2.87742 14.9467 3.00791 15.4604C3.19135 14.3675 2.67033 13.5984 1.66612 13.0544C1.53658 14.2207 1.85808 15.0983 2.83487 15.5553ZM3.43721 13.7931C3.14975 13.3822 2.99845 12.8881 2.94455 12.3314C3.29158 12.7609 3.52703 13.2188 3.6093 13.7188C3.87312 12.6954 3.44099 11.9195 2.53039 11.3138C2.31196 12.4106 2.54552 13.2726 3.43721 13.7931ZM2.1323 24.1232C1.64816 23.8884 1.25101 23.497 0.915328 22.9941C1.46566 23.2152 1.92521 23.5254 2.259 23.9579C1.98857 22.8337 1.18009 22.3288 0 22.2466C0.349867 23.4148 1.01367 24.1124 2.1323 24.1232ZM1.97628 21.9775C1.51861 21.6918 1.16213 21.2604 0.87845 20.7252C1.4042 21.004 1.83066 21.3611 2.11811 21.8269C1.96209 20.6802 1.20846 20.0902 0.0434976 19.8828C0.275166 21.0823 0.865212 21.8474 1.97628 21.9775ZM5.86263 7.90213C6.05553 8.31991 6.15387 8.73867 6.12078 9.15743C6.53589 8.39133 6.34394 7.67807 5.73309 6.9971C5.33972 7.8307 5.3558 8.57234 5.96854 9.17993C5.81819 8.78955 5.79455 8.36002 5.86263 7.90213ZM4.15963 12.1435C3.90811 11.7101 3.79842 11.2033 3.7918 10.6436C4.10101 11.1025 4.29674 11.58 4.3374 12.0848C4.68632 11.0888 4.32133 10.2777 3.46557 9.59184C3.15448 10.6652 3.31522 11.5448 4.15963 12.1435ZM8.06112 5.75941C8.16608 6.12142 8.19539 6.47071 8.1188 6.80337C8.54431 6.24078 8.47529 5.64102 8.0649 5.01582C7.6479 5.63613 7.5732 6.23492 7.99304 6.80239C7.91928 6.46876 7.95143 6.12044 8.06112 5.75941ZM9.05493 5.18019C9.11356 5.44045 9.11923 5.68798 9.0502 5.91889C9.37548 5.5422 9.35184 5.11464 9.08992 4.6538C8.76842 5.07256 8.68899 5.4923 8.96132 5.91302C8.92349 5.67331 8.96226 5.4287 9.05493 5.18019ZM6.94533 6.76228C7.09189 7.15658 7.15241 7.54305 7.09378 7.91876C7.52213 7.2554 7.39637 6.59301 6.88954 5.93259C6.47632 6.65955 6.44039 7.33269 6.95384 7.92854C6.8451 7.5636 6.85361 7.17321 6.94533 6.76228ZM5.03808 10.5732C4.84329 10.1603 4.78183 9.69262 4.81681 9.18678C5.06267 9.62609 5.2045 10.0742 5.20261 10.5341C5.59219 9.66033 5.3227 8.89815 4.60027 8.21033C4.24001 9.15449 4.31944 9.96364 5.03808 10.5732ZM12.7162 39.3757C11.1409 38.5 9.6932 37.409 8.41288 36.1381C2.29966 30.0719 0.616522 20.6694 4.21069 12.8098C5.42766 10.1495 7.20158 7.76124 9.4464 5.83866C9.50881 5.78485 9.48139 5.74375 9.4795 5.74082C9.47666 5.73788 9.44262 5.69875 9.37738 5.75452C7.12121 7.68786 5.33689 10.0899 4.11424 12.7629C0.491705 20.6851 2.09447 30.1747 8.26537 36.2985C9.55609 37.5793 11.0142 38.679 12.6018 39.5635C12.6794 39.5977 12.8269 39.6985 12.8751 39.6056C12.9271 39.5028 12.7786 39.4148 12.7162 39.3757Z" fill="white"/>
<path d="M39.1945 25.4676C39.0281 26.6778 39.3402 27.6024 40.3472 28.1073C40.0068 27.6797 39.8092 27.1514 39.7137 26.5477C40.1203 26.9919 40.4077 27.4753 40.5297 28.0134C40.75 26.8794 40.2281 26.0634 39.1945 25.4676ZM33.539 36.2946C33.6194 36.9003 33.5806 37.4668 33.3764 37.9775C34.1952 37.1879 34.2312 36.2115 33.7272 35.1039C32.9092 35.9874 32.6416 36.9257 33.1749 37.9433C33.14 37.3914 33.2771 36.8416 33.539 36.2946ZM35.0273 33.7723C34.3021 34.739 34.13 35.7017 34.7616 36.6557C34.6709 36.1107 34.7522 35.5491 34.9593 34.9777C35.0992 35.5716 35.1172 36.1381 34.9649 36.6684C35.7006 35.7966 35.6382 34.8202 35.0273 33.7723ZM37.1927 30.7294C36.6765 31.8302 36.6991 32.8076 37.5076 33.6079C37.31 33.0933 37.2788 32.5268 37.3658 31.9221C37.6211 32.474 37.7516 33.0248 37.709 33.5756C38.2556 32.5659 37.9993 31.6237 37.1927 30.7294ZM36.1866 32.3096C35.5625 33.3477 35.4869 34.3241 36.2112 35.2057C36.0665 34.6744 36.0911 34.1069 36.2386 33.515C36.4372 34.0913 36.5129 34.6529 36.4145 35.1969C37.0594 34.2498 36.8996 33.286 36.1866 32.3096ZM38.8343 31.8272C39.2759 30.7627 38.9269 29.8538 38.0353 29.0515C37.6315 30.2001 37.7525 31.1717 38.6366 31.8801C38.3889 31.3909 38.3 30.8302 38.3265 30.2187C38.6367 30.7392 38.822 31.2734 38.8343 31.8272ZM38.7047 27.2903C38.4182 28.4771 38.6357 29.4282 39.587 30.0377C39.291 29.5769 39.1473 29.0299 39.1123 28.4194C39.4716 28.9047 39.7099 29.4154 39.778 29.9653C40.1099 28.8607 39.6721 27.9938 38.7047 27.2903ZM31.9958 37.4531C32.0147 38.0636 31.9192 38.6223 31.6648 39.1095C32.5584 38.4129 32.6917 37.4443 32.3022 36.2898C31.4001 37.0813 31.0398 37.9853 31.4682 39.0547C31.488 38.5 31.679 37.9697 31.9958 37.4531ZM39.1057 31.9916C39.5794 31.7343 40.1203 31.6443 40.7103 31.6717C40.2073 31.9916 39.691 32.1834 39.1567 32.1961C40.1846 32.652 41.063 32.2929 41.8394 31.3693C40.7283 30.9506 39.7903 31.0768 39.1057 31.9916ZM41.0819 25.991C41.1869 24.8375 40.5865 24.0821 39.499 23.6017C39.4546 24.8238 39.8574 25.7102 40.9098 26.1035C40.5288 25.7151 40.2782 25.2102 40.1231 24.6202C40.5723 25.0185 40.9061 25.4685 41.0819 25.991ZM31.8209 39.3913C32.3551 39.4119 32.8686 39.6105 33.3678 39.9373C32.7778 39.9568 32.2379 39.857 31.7679 39.5938C32.4412 40.5194 33.3773 40.6574 34.4931 40.2543C33.7281 39.3209 32.8534 38.9481 31.8209 39.3913ZM37.9625 33.7694C38.4598 33.5649 39.0064 33.5336 39.5917 33.6226C39.0593 33.8868 38.526 34.0228 37.9937 33.9778C38.9704 34.5423 39.8801 34.2772 40.7453 33.4436C39.6806 32.9093 38.735 32.9338 37.9625 33.7694ZM40.0635 30.1003C40.5089 29.7941 41.0384 29.6444 41.6275 29.6092C41.1595 29.981 40.6649 30.2275 40.1345 30.298C41.202 30.6424 42.0408 30.1903 42.7197 29.1885C41.5736 28.891 40.6536 29.117 40.0635 30.1003ZM36.6471 35.4151C37.1615 35.2654 37.71 35.2908 38.2811 35.4444C37.7251 35.6499 37.1814 35.7272 36.6556 35.6254C37.57 36.2927 38.5024 36.1264 39.4461 35.3886C38.4419 34.7439 37.4991 34.6656 36.6471 35.4151ZM35.1739 36.912C35.7006 36.8181 36.2434 36.9022 36.7965 37.1165C36.2226 37.2613 35.6741 37.2809 35.1626 37.1224C36.0051 37.8836 36.9488 37.819 37.9606 37.187C37.0273 36.4365 36.0968 36.2575 35.1739 36.912ZM33.5598 38.2417C34.0931 38.2045 34.6245 38.3474 35.1531 38.6184C34.5678 38.7006 34.0203 38.6604 33.5267 38.4491C34.2888 39.2964 35.2335 39.3336 36.3039 38.8131C35.45 37.9668 34.5432 37.6899 33.5598 38.2417ZM40.8276 28.1161C41.2399 27.7649 41.7514 27.5604 42.3348 27.4606C41.9065 27.8813 41.4394 28.1787 40.9183 28.3059C42.0152 28.5329 42.8029 27.9938 43.3788 26.9244C42.2081 26.7522 41.3155 27.0751 40.8276 28.1161ZM37.6608 9.32377C37.0736 8.68976 36.3568 8.67313 35.5512 9.08113C36.2074 9.7122 36.8987 9.9118 37.6381 9.48228C37.2334 9.5175 36.8296 9.41477 36.4259 9.21615C36.8684 9.1457 37.2845 9.17016 37.6608 9.32377ZM41.567 21.822C41.4403 20.6724 40.7018 20.0618 39.5416 19.8231C39.742 21.0285 40.3132 21.8093 41.4205 21.9697C40.9704 21.6713 40.6252 21.231 40.3548 20.688C40.873 20.9806 41.29 21.3494 41.567 21.822ZM38.5657 10.6828C37.9766 9.93919 37.1956 9.85701 36.2821 10.2298C36.9469 10.9773 37.6844 11.2571 38.5279 10.854C38.0844 10.856 37.6513 10.7092 37.2258 10.4538C37.7156 10.4176 38.1676 10.4812 38.5657 10.6828ZM36.7001 8.1037C36.1242 7.57242 35.4737 7.6096 34.7711 8.03716C35.4094 8.56257 36.0495 8.6927 36.6906 8.2485C36.3266 8.30916 35.9531 8.24654 35.573 8.09489C35.9701 7.99901 36.3483 7.99118 36.7001 8.1037ZM41.3893 26.0624C41.7647 25.6681 42.2526 25.4098 42.8218 25.2484C42.4379 25.7122 42.0029 26.0585 41.498 26.2405C42.6109 26.3501 43.3409 25.7268 43.8062 24.6026C42.6251 24.5567 41.7703 24.9735 41.3893 26.0624ZM35.6902 7.00201C35.1418 6.56759 34.5631 6.64586 33.9636 7.07734C34.5678 7.50099 35.1474 7.57242 35.6912 7.13213C35.3706 7.21236 35.033 7.18203 34.6832 7.07245C35.0311 6.95993 35.3687 6.92667 35.6902 7.00201ZM34.7711 6.13024C34.3645 5.84846 33.9588 5.93162 33.5541 6.2633C33.9995 6.53432 34.4118 6.55879 34.7768 6.22221C34.5536 6.29266 34.3144 6.28679 34.0628 6.22612C34.303 6.13122 34.5404 6.09208 34.7711 6.13024ZM36.9412 11.5027C37.6031 12.3882 38.388 12.7658 39.3496 12.4048C38.8617 12.3637 38.4003 12.1602 37.9568 11.8402C38.4967 11.8481 38.9875 11.9606 39.4073 12.2208C38.8277 11.3471 37.9776 11.1818 36.9412 11.5027ZM41.429 23.9197C41.4186 22.7622 40.7444 22.0764 39.6153 21.7134C39.6948 22.9344 40.1836 23.771 41.2692 24.0508C40.8512 23.7054 40.5524 23.2309 40.3378 22.6605C40.8238 23.0069 41.202 23.4188 41.429 23.9197ZM37.7279 12.892C38.3133 13.8342 39.0622 14.2814 40.0512 14.0084C39.569 13.9233 39.1255 13.6787 38.7114 13.3196C39.2494 13.3754 39.7279 13.5329 40.1241 13.8303C39.621 12.9077 38.7879 12.666 37.7279 12.892ZM38.8768 16.1257C39.3042 17.2381 40.0021 17.8663 41.0942 17.789C40.6054 17.5972 40.1884 17.2479 39.8243 16.7842C40.3775 16.9564 40.8484 17.2225 41.2058 17.6178C40.8597 16.5425 40.0333 16.113 38.8768 16.1257ZM41.4933 19.7223C41.2521 18.5913 40.456 18.0639 39.2787 17.9504C39.5993 19.1274 40.2451 19.8436 41.3628 19.8847C40.8853 19.6362 40.4976 19.2341 40.1751 18.7224C40.7198 18.9592 41.1708 19.2811 41.4933 19.7223ZM38.2868 14.343C38.8125 15.3821 39.5548 15.9212 40.612 15.7314C40.1165 15.5964 39.6758 15.2979 39.2749 14.8841C39.8319 14.9937 40.317 15.204 40.7037 15.5523C40.2612 14.5416 39.413 14.209 38.2868 14.343ZM34.3777 5.67724C34.1688 5.5745 33.9967 5.40426 33.852 5.1851C34.0903 5.28294 34.2898 5.41796 34.4335 5.60581C34.3182 5.11759 33.9683 4.89744 33.4567 4.85928C33.6071 5.3661 33.8926 5.67039 34.3777 5.67724ZM41.8063 19.692C42.0464 19.1979 42.4351 18.7967 42.9287 18.4631C42.7008 19.0267 42.3887 19.4934 41.9632 19.828C43.0554 19.5785 43.566 18.7547 43.6757 17.5366C42.5372 17.8682 41.846 18.5355 41.8063 19.692ZM41.5075 17.5561C41.6918 17.0503 42.0313 16.6188 42.4795 16.2421C42.3131 16.8145 42.0559 17.3017 41.6729 17.6706C42.7112 17.3135 43.1272 16.4583 43.115 15.2608C42.0398 15.703 41.4328 16.4261 41.5075 17.5561ZM40.9921 15.4604C41.1226 14.9477 41.411 14.4917 41.811 14.0769C41.7051 14.6522 41.5018 15.1551 41.1652 15.5553C42.1419 15.0984 42.4634 14.2207 42.3339 13.0554C41.3287 13.5984 40.8087 14.3675 40.9921 15.4604ZM40.3907 13.7178C40.473 13.2178 40.7094 12.76 41.0555 12.3304C41.0016 12.8871 40.8493 13.3822 40.5628 13.7922C41.4545 13.2717 41.6881 12.4097 41.4696 11.3119C40.559 11.9185 40.1269 12.6944 40.3907 13.7178ZM41.8677 24.1232C42.9864 24.1125 43.6492 23.4158 44 22.2476C42.8199 22.3288 42.0114 22.8346 41.741 23.9588C42.0748 23.5264 42.5344 23.2162 43.0847 22.9951C42.749 23.497 42.3519 23.8874 41.8677 24.1232ZM41.881 21.8269C42.1694 21.3612 42.5958 21.004 43.1206 20.7252C42.8369 21.2614 42.4805 21.6928 42.0228 21.9785C43.1339 21.8474 43.7239 21.0833 43.9556 19.8838C42.7906 20.0902 42.037 20.6812 41.881 21.8269ZM38.1374 7.90214C38.2045 8.36004 38.1818 8.78956 38.0324 9.17995C38.6452 8.57235 38.6612 7.83072 38.2679 6.99711C37.657 7.67711 37.4641 8.39135 37.8802 9.15744C37.8461 8.73868 37.9445 8.31992 38.1374 7.90214ZM39.6626 12.0848C39.7023 11.58 39.899 11.1025 40.2082 10.6436C40.2016 11.2023 40.0919 11.7091 39.8404 12.1436C40.6848 11.5448 40.8446 10.6652 40.5344 9.59186C39.6787 10.2777 39.3137 11.0888 39.6626 12.0848ZM35.9389 5.75942C36.0476 6.12046 36.0807 6.46877 36.007 6.80241C36.4268 6.23493 36.3521 5.63614 35.9351 5.01583C35.5247 5.64104 35.4557 6.2408 35.8812 6.80339C35.8046 6.47073 35.8339 6.12046 35.9389 5.75942ZM34.9451 5.1802C35.0377 5.42872 35.0765 5.6743 35.0387 5.91303C35.311 5.49232 35.2316 5.07258 34.9101 4.65382C34.6482 5.11465 34.6245 5.54124 34.9498 5.9189C34.8808 5.688 34.8865 5.43948 34.9451 5.1802ZM37.0537 6.76229C37.1455 7.17323 37.154 7.56361 37.0452 7.92856C37.5587 7.33271 37.5228 6.65956 37.1095 5.9326C36.6027 6.59303 36.476 7.25443 36.9053 7.91878C36.8467 7.54209 36.9072 7.15561 37.0537 6.76229ZM39.1832 9.1868C39.2182 9.69263 39.1577 10.1603 38.9619 10.5732C39.6806 9.96365 39.76 9.15549 39.3997 8.21034C38.6764 8.89816 38.4069 9.66133 38.7974 10.5341C38.7955 10.0742 38.9373 9.6261 39.1832 9.1868ZM39.8858 12.7629C38.6631 10.0899 36.8788 7.68787 34.6226 5.75453C34.5583 5.69876 34.5234 5.7379 34.5205 5.74181C34.5186 5.74475 34.4912 5.78584 34.5536 5.83965C36.7975 7.76321 38.5723 10.1515 39.7893 12.8118C43.3835 20.6704 41.6994 30.0739 35.5871 36.1401C34.3068 37.411 32.8591 38.501 31.2838 39.3776C31.2214 39.4168 31.0729 39.5048 31.1268 39.6075C31.175 39.7005 31.3216 39.5997 31.4001 39.5655C32.9868 38.681 34.4458 37.5813 35.7365 36.3005C41.9055 30.1747 43.5093 20.6851 39.8858 12.7629Z" fill="white"/>
<path d="M22.0032 0L22.2697 0.55877L22.8658 0.648392L22.4345 1.08329L22.5364 1.69764L22.0032 1.40754L21.47 1.69764L21.5719 1.08329L21.1405 0.648392L21.7367 0.55877L22.0032 0Z" fill="white"/>
<path d="M18.4013 0.325909L18.7575 0.828616L19.3596 0.809538L19.0078 1.31547L19.2112 1.90193L18.6375 1.71232L18.1612 2.0937L18.1584 1.47055L17.6605 1.1195L18.2326 0.924207L18.4013 0.325909Z" fill="white"/>
<path d="M14.9088 1.29424L15.344 1.72503L15.9338 1.59833L15.6722 2.15974L15.971 2.7009L15.3741 2.61695L14.969 3.07827L14.8617 2.4651L14.3125 2.20886L14.8431 1.91387L14.9088 1.29424Z" fill="white"/>
<path d="M11.6319 2.87535L12.1328 3.22132L12.6923 2.99051L12.5289 3.59018L12.914 4.0698L12.3121 4.09436L11.9905 4.62143L11.7819 4.03692L11.1981 3.88322L11.6712 3.49713L11.6319 2.87535Z" fill="white"/>
<path d="M32.374 2.87545L32.3346 3.49733L32.808 3.88321L32.2238 4.03672L32.0152 4.62142L31.6936 4.09435L31.0919 4.06979L31.477 3.59018L31.3135 2.99061L31.873 3.22151L32.374 2.87545Z" fill="white"/>
<path d="M29.0971 1.29443L29.1627 1.91396L29.6936 2.20885L29.144 2.4649L29.0367 3.07837L28.6316 2.61695L28.0349 2.7009L28.3336 2.15954L28.072 1.59842L28.6617 1.72522L29.0971 1.29443Z" fill="white"/>
<path d="M25.6047 0.326109L25.7733 0.924408L26.3455 1.1195L25.8473 1.47026L25.8446 2.09371L25.3682 1.71213L24.7946 1.90213L24.998 1.31528L24.6461 0.809738L25.2483 0.828816L25.6047 0.326109Z" fill="white"/>
<path d="M30.3435 38.4388C30.3014 39.0484 30.1504 39.5936 29.8487 40.0511C30.8072 39.4537 31.0369 38.5048 30.7654 37.3139C29.7891 38.0043 29.3402 38.8651 29.6589 39.9741C29.7338 39.427 29.9781 38.9183 30.3435 38.4388Z" fill="white"/>
<path d="M28.6022 39.2424C28.4988 39.8444 28.2942 40.3706 27.9482 40.7927C28.9614 40.3013 29.2851 39.3823 29.134 38.1691C28.094 38.7511 27.5612 39.5588 27.7667 40.6962C27.8962 40.1597 28.1901 39.681 28.6022 39.2424Z" fill="white"/>
<path d="M26.7891 39.8551C26.6261 40.4423 26.37 40.9443 25.9836 41.3274C27.0408 40.9478 27.4547 40.0676 27.4261 38.8442C26.3328 39.3115 25.7225 40.0585 25.813 41.2124C25.9953 40.6911 26.3358 40.2463 26.7891 39.8551Z" fill="white"/>
<path d="M23.3975 40.3356C23.1619 40.7961 22.863 41.1673 22.476 41.4173C23.4217 41.2923 23.9162 40.6345 24.1001 39.6095C23.1094 39.8002 22.4732 40.3113 22.3529 41.2899C22.5937 40.8893 22.9529 40.5795 23.3975 40.3356Z" fill="white"/>
<path d="M24.9248 40.2699C24.7035 40.8368 24.3985 41.3092 23.976 41.647C25.0652 41.3831 25.5646 40.5528 25.6591 39.3331C24.5253 39.6803 23.8432 40.3573 23.8175 41.514C24.0513 41.0166 24.4343 40.6104 24.9248 40.2699Z" fill="white"/>
<path d="M21.988 40.4888C22.0995 40.8661 22.132 41.2299 22.0537 41.577C22.4953 40.9876 22.4193 40.3614 21.988 39.712C21.5568 40.3614 21.481 40.9875 21.9224 41.5762C21.844 41.2299 21.8762 40.8661 21.988 40.4888Z" fill="white"/>
<path d="M21.5235 41.4173C21.1365 41.1674 20.837 40.7961 20.6017 40.3356C21.0465 40.5795 21.4061 40.8893 21.6459 41.2899C21.5259 40.3113 20.8898 39.8002 19.8993 39.6095C20.0831 40.6345 20.5776 41.2922 21.5235 41.4173Z" fill="white"/>
<path d="M16.0458 40.7927C15.6999 40.3707 15.4953 39.8445 15.3919 39.2424C15.8038 39.681 16.0976 40.1597 16.227 40.6961C16.4328 39.5587 15.9001 38.7511 14.8599 38.169C14.709 39.3823 15.0326 40.3013 16.0458 40.7927Z" fill="white"/>
<path d="M18.0105 41.3274C17.6241 40.9443 17.3675 40.4423 17.2047 39.8551C17.6581 40.2463 17.9985 40.6911 18.1809 41.2124C18.2715 40.0585 17.6609 39.3115 16.5682 38.8442C16.5395 40.0675 16.9534 40.9478 18.0105 41.3274Z" fill="white"/>
<path d="M20.0177 41.647C19.5953 41.3091 19.2903 40.8368 19.069 40.2699C19.5594 40.6104 19.9427 41.0166 20.176 41.5138C20.1505 40.3572 19.4686 39.6802 18.3348 39.333C18.4289 40.5529 18.9286 41.3831 20.0177 41.647Z" fill="white"/>
<path d="M14.1453 40.051C13.8436 39.5936 13.6927 39.0484 13.6501 38.4388C14.0161 38.9181 14.2603 39.427 14.3352 39.9739C14.6538 38.865 14.2051 38.0042 13.2288 37.3138C12.9571 38.5048 13.1869 39.4537 14.1453 40.051Z" fill="white"/>
<path d="M31.2589 39.3892C29.015 40.6341 26.512 41.4439 23.8553 41.7079C23.2872 41.3613 22.7393 41.3322 22.2195 41.7487C22.5006 41.6807 22.7932 41.6945 23.095 41.7677C23.1268 41.842 23.0243 41.8819 23.0243 41.8819C22.7475 41.941 22.4784 41.9469 22.2194 41.8843C22.7369 42.299 23.2824 42.2715 23.8481 41.9302C26.5757 41.6637 29.1437 40.8281 31.4404 39.5402C31.3786 39.4916 31.3187 39.4405 31.2589 39.3892Z" fill="white"/>
<path d="M14.5441 41.9668C14.9673 41.5406 15.4303 41.2358 15.9493 41.1026C14.8496 40.8893 14.0689 41.4405 13.5067 42.5164C14.6795 42.6729 15.5676 42.3384 16.0422 41.2899C15.6344 41.648 15.1257 41.8603 14.5441 41.9668Z" fill="white"/>
<path d="M16.6342 42.6554C17.0127 42.1856 17.4428 41.8344 17.9454 41.6455C16.8305 41.5514 16.1087 42.1833 15.6577 43.3139C16.8398 43.3432 17.6896 42.9152 18.0569 41.8219C17.687 42.2215 17.2019 42.4865 16.6342 42.6554Z" fill="white"/>
<path d="M18.7824 43.1158C19.1117 42.6086 19.5042 42.2123 19.9846 41.9708C18.867 41.9975 18.2124 42.7038 17.8768 43.8758C19.0554 43.7788 19.8585 43.2623 20.1134 42.1349C19.7855 42.5718 19.33 42.8877 18.7824 43.1158Z" fill="white"/>
<path d="M20.6017 43.274C20.837 42.8127 21.1365 42.4413 21.5235 42.1923C20.5777 42.3165 20.0832 42.9751 19.8993 44C20.8898 43.8104 21.5259 43.2982 21.6459 42.3198C21.4061 42.7203 21.0464 43.0292 20.6017 43.274Z" fill="white"/>
<path d="M22.0107 43.1201C21.8992 42.7445 21.8669 42.3798 21.9452 42.0325C21.5042 42.6231 21.5797 43.2481 22.0107 43.8977C22.4424 43.2481 22.518 42.6231 22.0762 42.0325C22.1546 42.3798 22.1227 42.7445 22.0107 43.1201Z" fill="white"/>
<path d="M22.476 42.1923C22.8629 42.4413 23.1618 42.8127 23.3975 43.274C22.9529 43.0292 22.5937 42.7203 22.353 42.3198C22.4732 43.2982 23.1095 43.8103 24.1002 44C23.9162 42.9751 23.4217 42.3165 22.476 42.1923Z" fill="white"/>
<path d="M26.0484 41.6455C26.5509 41.8345 26.9814 42.1856 27.3595 42.6554C26.7923 42.4865 26.3067 42.2215 25.9371 41.8218C26.3042 42.9151 27.1544 43.3431 28.336 43.3138C27.8855 42.1833 27.1632 41.5514 26.0484 41.6455Z" fill="white"/>
<path d="M28.0446 41.1026C28.5632 41.2358 29.0265 41.5406 29.45 41.9668C28.8681 41.8603 28.3596 41.648 27.9514 41.2899C28.4259 42.3384 29.3143 42.6729 30.4873 42.5164C29.9252 41.4405 29.1442 40.8893 28.0446 41.1026Z" fill="white"/>
<path d="M24.0087 41.9708C24.4896 42.2123 24.8824 42.6087 25.2115 43.1158C24.6636 42.8877 24.208 42.5718 23.8802 42.1349C24.1356 43.2623 24.9382 43.7788 26.1167 43.8758C25.7816 42.7038 25.1274 41.9975 24.0087 41.9708Z" fill="white"/>
<path d="M29.9758 40.3481C30.5049 40.4264 30.9963 40.6788 31.4598 41.0576C30.8706 41.0126 30.3434 40.8569 29.9019 40.5453C30.4787 41.5362 31.3962 41.7743 32.5466 41.493C31.8799 40.4839 31.048 40.0191 29.9758 40.3481Z" fill="white"/>
<path d="M14.0922 40.5453C13.6505 40.8569 13.1232 41.0126 12.5341 41.0576C12.9978 40.6788 13.4889 40.4264 14.0182 40.3481C12.946 40.0191 12.114 40.4839 11.4474 41.493C12.598 41.7743 13.5153 41.5362 14.0922 40.5453Z" fill="white"/>
<path d="M20.971 41.8568C20.971 41.8568 20.8369 41.8093 20.8313 41.7629C21.158 41.6729 21.4757 41.6511 21.7793 41.7254C21.2494 41.3006 20.6897 41.3389 20.1091 41.7045C17.4746 41.4391 14.9911 40.6376 12.7628 39.4064C12.7265 39.4697 12.6911 39.5335 12.6564 39.5977C14.9414 40.8611 17.4918 41.6775 20.198 41.9343C20.7469 42.2499 21.2762 42.2631 21.7793 41.8611C21.5187 41.9234 21.2485 41.917 20.971 41.8568Z" fill="white"/>
<path d="M13.5758 18.2889C13.4138 18.4664 13.2313 18.6219 13.0283 18.7556C12.8247 18.8894 12.6126 19.0012 12.3919 19.0912C12.1707 19.1813 11.9459 19.2491 11.7177 19.2948C11.4895 19.3404 11.2686 19.3632 11.0549 19.3632C10.8185 19.3632 10.5963 19.3345 10.3882 19.2771C10.1802 19.2204 9.99833 19.1336 9.84262 19.0169C9.68628 18.8995 9.56273 18.7514 9.47195 18.5727C9.38054 18.3933 9.33484 18.1807 9.33484 17.9348C9.33484 17.7254 9.3714 17.5245 9.44453 17.3321C9.51765 17.1396 9.63081 16.9687 9.78399 16.8194C9.93655 16.6707 10.1326 16.5506 10.3721 16.4593C10.6111 16.3686 10.8976 16.3191 11.2317 16.3106C11.0117 16.3106 10.8197 16.278 10.6558 16.2128C10.4913 16.1475 10.3551 16.0595 10.2473 15.9486C10.1395 15.8377 10.0585 15.7082 10.0043 15.5602C9.9501 15.4121 9.92299 15.2552 9.92299 15.0895C9.92299 14.9343 9.94915 14.7928 10.0015 14.6649C10.0532 14.5364 10.1247 14.421 10.2161 14.3186C10.3069 14.2161 10.4144 14.1265 10.5386 14.0495C10.6628 13.9732 10.7973 13.9096 10.9423 13.8587C11.0873 13.8078 11.2392 13.7697 11.3981 13.7442C11.557 13.7181 11.7177 13.7051 11.8804 13.7051C12.1142 13.7051 12.3431 13.7315 12.5669 13.7843C12.7913 13.8372 12.9905 13.9164 13.1645 14.0221C13.3385 14.1278 13.4784 14.2595 13.5843 14.4174C13.6902 14.5759 13.7432 14.7608 13.7432 14.9721C13.7432 15.0465 13.7189 15.1199 13.6704 15.1923C13.6212 15.2647 13.5626 15.3296 13.4945 15.387C13.4264 15.4437 13.3548 15.4891 13.2798 15.523C13.2048 15.5575 13.1424 15.5748 13.0926 15.5748C13.0504 15.5748 13.0292 15.5363 13.0292 15.4594C13.0292 15.3909 13.0396 15.3028 13.0604 15.1952C13.0819 15.0876 13.1175 14.9532 13.1673 14.7921C13.1131 14.7464 13.034 14.7008 12.93 14.6551C12.8259 14.6095 12.7084 14.568 12.5773 14.5309C12.4468 14.4937 12.3074 14.4634 12.1593 14.4399C12.0112 14.4157 11.8649 14.4037 11.7206 14.4037C11.5869 14.4037 11.4589 14.4161 11.3366 14.4409C11.2143 14.4656 11.1069 14.5067 11.0142 14.5641C10.9209 14.6209 10.8468 14.6959 10.792 14.7892C10.7371 14.8818 10.7097 14.9966 10.7097 15.1336C10.7097 15.2451 10.7293 15.3394 10.7683 15.4163C10.8074 15.4926 10.8594 15.5579 10.9244 15.612C10.9893 15.6655 11.0637 15.7095 11.1475 15.7441C11.2314 15.778 11.3184 15.8083 11.4085 15.8351C11.4987 15.8618 11.5872 15.8879 11.6742 15.9134C11.7612 15.9381 11.8413 15.9665 11.9144 15.9985C11.9875 16.0304 12.049 16.0693 12.0988 16.1149C12.1492 16.1606 12.1823 16.2173 12.1981 16.2852C12.2019 16.3289 12.206 16.3729 12.2104 16.4172C12.2141 16.4623 12.216 16.5053 12.216 16.5464C12.216 16.6625 12.1949 16.747 12.1527 16.7998C12.1111 16.8526 12.0291 16.8791 11.9068 16.8791C11.8551 16.8791 11.7905 16.8758 11.713 16.8693C11.6361 16.8634 11.5626 16.8605 11.4927 16.8605C11.3325 16.8605 11.1756 16.8817 11.0218 16.9241C10.8673 16.9665 10.7293 17.0294 10.6076 17.1129C10.4853 17.197 10.3866 17.3007 10.3116 17.424C10.2366 17.5467 10.1991 17.6898 10.1991 17.8536C10.1991 18.0088 10.2205 18.1383 10.2634 18.242C10.3069 18.3457 10.3662 18.4289 10.4412 18.4915C10.5162 18.5547 10.6048 18.5998 10.7069 18.6265C10.8084 18.6539 10.9184 18.6676 11.0369 18.6676C11.1787 18.6676 11.3278 18.6529 11.4842 18.6236C11.6399 18.5949 11.7953 18.5551 11.9503 18.5042C12.1054 18.4533 12.2564 18.3933 12.4033 18.3242C12.5508 18.255 12.6876 18.1807 12.8137 18.1011C12.9397 18.0209 13.0507 17.9367 13.1465 17.8487C13.2423 17.7613 13.3164 17.6729 13.3687 17.5835L13.5758 18.2889ZM14.6557 18.4836C14.6557 18.4569 14.6579 18.4187 14.6623 18.3692C14.6661 18.3196 14.672 18.2629 14.6802 18.1989C14.6878 18.1344 14.6966 18.0665 14.7067 17.9954C14.7168 17.9237 14.7269 17.8526 14.737 17.7821C14.759 17.6164 14.7861 17.4384 14.8183 17.2479H14.7729C14.749 17.2792 14.7215 17.3259 14.6906 17.3878C14.6597 17.4498 14.6163 17.5408 14.5601 17.6608C14.504 17.7815 14.4325 17.9374 14.3455 18.1285C14.2585 18.3203 14.146 18.56 14.0079 18.8476C13.9676 18.9324 13.9209 18.9898 13.868 19.0198C13.815 19.0498 13.7567 19.0648 13.693 19.0648C13.6105 19.0648 13.5443 19.0466 13.4945 19.01C13.4447 18.9742 13.4062 18.9256 13.3791 18.8643C13.352 18.8036 13.334 18.7344 13.3252 18.6568C13.3158 18.5792 13.311 18.499 13.311 18.4161C13.311 18.3313 13.3161 18.2309 13.3262 18.1148C13.3362 17.9987 13.3495 17.8764 13.3659 17.7479C13.3816 17.62 13.405 17.4736 13.4358 17.3086C13.4667 17.1442 13.4938 17.001 13.5172 16.8791C13.5399 16.7564 13.5632 16.6446 13.5871 16.5435C13.6117 16.4417 13.6338 16.3589 13.6533 16.2949C13.6735 16.2284 13.6927 16.1756 13.711 16.1364C13.7287 16.0973 13.7492 16.0666 13.7725 16.0445C13.7952 16.0229 13.8226 16.0086 13.8547 16.0014C13.8869 15.9942 13.9279 15.9907 13.9777 15.9907C14.0539 15.9907 14.1135 15.9933 14.1564 15.9985C14.1992 16.0037 14.2311 16.0161 14.2519 16.0357C14.2733 16.0552 14.2859 16.0836 14.2897 16.1208C14.2935 16.158 14.2954 16.2088 14.2954 16.2734C14.2954 16.3086 14.2941 16.3491 14.2916 16.3947C14.2884 16.4397 14.2837 16.4883 14.2774 16.5405C14.2736 16.5921 14.2676 16.6449 14.2595 16.699C14.2456 16.8021 14.2377 16.8559 14.2358 16.8605C14.2081 17.0007 14.1791 17.1579 14.1488 17.3321L14.1819 17.3692C14.1857 17.3634 14.2122 17.3086 14.2613 17.2049C14.3105 17.1012 14.3635 16.9987 14.4202 16.8976C14.4776 16.7959 14.539 16.6896 14.6046 16.5787C14.6708 16.4684 14.7338 16.3706 14.7937 16.2852C14.8517 16.2004 14.9135 16.1302 14.979 16.0748C15.044 16.0187 15.1212 15.9907 15.2107 15.9907C15.2952 15.9907 15.3674 16.0161 15.4273 16.067C15.4871 16.1172 15.5171 16.1889 15.5171 16.2822C15.5171 16.3631 15.512 16.4397 15.502 16.5121C15.49 16.6054 15.478 16.6759 15.466 16.7235C15.4522 16.777 15.4361 16.8432 15.4178 16.9221C15.4039 16.9906 15.379 17.0891 15.3431 17.2176C15.3374 17.2378 15.3314 17.2678 15.3251 17.3076C15.3232 17.32 15.3223 17.3281 15.3223 17.3321L15.3554 17.3692C15.3592 17.3634 15.3872 17.3089 15.4395 17.2058C15.4912 17.1034 15.5477 17.0017 15.6088 16.9006C15.67 16.7988 15.7349 16.6922 15.8036 16.5806C15.8729 16.4691 15.9376 16.3706 15.9974 16.2852C16.0554 16.2023 16.1134 16.1325 16.1714 16.0758C16.2294 16.019 16.3003 15.9907 16.3842 15.9907C16.4787 15.9907 16.5585 16.0161 16.6234 16.067C16.6883 16.1172 16.7208 16.1889 16.7208 16.2822C16.7208 16.4251 16.7139 16.5607 16.7 16.6892C16.6855 16.8177 16.6644 16.9596 16.6367 17.1149C16.6089 17.2701 16.5878 17.4113 16.5733 17.5385C16.5594 17.6657 16.5525 17.8007 16.5525 17.9436C16.5525 18.0558 16.5667 18.1471 16.595 18.2175C16.6228 18.2873 16.6568 18.3222 16.6972 18.3222C16.7388 18.3222 16.7826 18.3131 16.8286 18.2948C16.8746 18.2759 16.9216 18.2521 16.9695 18.2234C17.018 18.194 17.0653 18.1604 17.1113 18.1226C17.1574 18.0841 17.2012 18.0443 17.2428 18.0032C17.3411 17.908 17.4382 17.8001 17.534 17.6794L17.5851 18.4122C17.4968 18.4853 17.4092 18.5606 17.3222 18.6382C17.2352 18.7159 17.1432 18.786 17.0461 18.8486C16.949 18.9119 16.8425 18.9637 16.7265 19.0042C16.6105 19.0446 16.4794 19.0648 16.3331 19.0648C16.2613 19.0648 16.2007 19.0404 16.1516 18.9914C16.103 18.9432 16.0636 18.8757 16.0334 18.7889C16.0037 18.7015 15.9823 18.5988 15.9691 18.4807C15.9558 18.3627 15.9492 18.2345 15.9492 18.0962C15.9492 17.9657 15.9539 17.8275 15.9634 17.6814C15.9722 17.5352 15.9845 17.3878 16.0003 17.2391H15.9558L15.3459 18.8447C15.2942 18.9314 15.2362 18.9898 15.1719 19.0198C15.1083 19.0498 15.0342 19.0648 14.9497 19.0648C14.8861 19.0648 14.835 19.0466 14.7965 19.01C14.7587 18.9742 14.7294 18.9278 14.7086 18.8711C14.6878 18.8137 14.6736 18.7511 14.6661 18.6832C14.6591 18.6148 14.6557 18.5482 14.6557 18.4836ZM18.5363 18.4836C18.5363 18.4569 18.5382 18.4187 18.542 18.3692C18.5464 18.3196 18.5524 18.2629 18.56 18.1989C18.5682 18.1344 18.5773 18.0665 18.5874 17.9954C18.5975 17.9237 18.6076 17.8526 18.6177 17.7821C18.6397 17.6164 18.6665 17.4384 18.698 17.2479H18.6536C18.6296 17.2792 18.6022 17.3259 18.5713 17.3878C18.5398 17.4498 18.4963 17.5408 18.4408 17.6608C18.3847 17.7815 18.3132 17.9374 18.2262 18.1285C18.1392 18.3203 18.0267 18.56 17.8886 18.8476C17.8483 18.9324 17.8016 18.9898 17.7487 19.0198C17.6957 19.0498 17.6371 19.0648 17.5728 19.0648C17.4908 19.0648 17.425 19.0466 17.3752 19.01C17.3247 18.9742 17.2863 18.9256 17.2598 18.8643C17.2327 18.8036 17.2144 18.7344 17.205 18.6568C17.1961 18.5792 17.1917 18.499 17.1917 18.4161C17.1917 18.3313 17.1968 18.2309 17.2068 18.1148C17.2169 17.9987 17.2299 17.8764 17.2456 17.7479C17.262 17.62 17.2856 17.4736 17.3165 17.3086C17.3474 17.1442 17.3745 17.001 17.3979 16.8791C17.4205 16.7564 17.4439 16.6446 17.4678 16.5435C17.4918 16.4417 17.5138 16.3589 17.534 16.2949C17.5542 16.2284 17.5731 16.1756 17.5908 16.1364C17.609 16.0973 17.6295 16.0666 17.6522 16.0445C17.6755 16.0229 17.7033 16.0086 17.7354 16.0014C17.7669 15.9942 17.8079 15.9907 17.8584 15.9907C17.934 15.9907 17.9936 15.9933 18.0371 15.9985C18.0799 16.0037 18.1118 16.0161 18.1326 16.0357C18.154 16.0552 18.1666 16.0836 18.1704 16.1208C18.1742 16.158 18.1761 16.2088 18.1761 16.2734C18.1761 16.3086 18.1745 16.3491 18.1713 16.3947C18.1688 16.4397 18.1644 16.4883 18.1581 16.5405C18.1543 16.5921 18.1483 16.6449 18.1401 16.699C18.1263 16.8021 18.1184 16.8559 18.1165 16.8605C18.0881 17.0007 18.0591 17.1579 18.0295 17.3321L18.0626 17.3692C18.0664 17.3634 18.0929 17.3086 18.142 17.2049C18.1906 17.1012 18.2435 16.9987 18.3009 16.8976C18.3576 16.7959 18.4191 16.6896 18.4853 16.5787C18.5515 16.4684 18.6145 16.3706 18.6744 16.2852C18.7324 16.2004 18.7939 16.1302 18.8588 16.0748C18.9237 16.0187 19.0013 15.9907 19.0914 15.9907C19.1759 15.9907 19.248 16.0161 19.3079 16.067C19.3678 16.1172 19.3978 16.1889 19.3978 16.2822C19.3978 16.3631 19.3927 16.4397 19.3826 16.5121C19.3707 16.6054 19.3587 16.6759 19.3467 16.7235C19.3328 16.777 19.3168 16.8432 19.2985 16.9221C19.2846 16.9906 19.2597 17.0891 19.2238 17.2176C19.2175 17.2378 19.2115 17.2678 19.2058 17.3076C19.2039 17.32 19.203 17.3281 19.203 17.3321L19.2361 17.3692C19.2399 17.3634 19.2676 17.3089 19.3193 17.2058C19.3716 17.1034 19.4283 17.0017 19.4895 16.9006C19.5506 16.7988 19.6156 16.6922 19.6843 16.5806C19.7536 16.4691 19.8182 16.3706 19.8781 16.2852C19.9361 16.2023 19.9941 16.1325 20.0521 16.0758C20.1101 16.019 20.181 15.9907 20.2649 15.9907C20.3588 15.9907 20.4385 16.0161 20.5041 16.067C20.569 16.1172 20.6015 16.1889 20.6015 16.2822C20.6015 16.4251 20.5942 16.5607 20.5797 16.6892C20.5659 16.8177 20.5451 16.9596 20.5173 17.1149C20.489 17.2701 20.4679 17.4113 20.454 17.5385C20.4401 17.6657 20.4332 17.8007 20.4332 17.9436C20.4332 18.0558 20.4471 18.1471 20.4748 18.2175C20.5032 18.2873 20.5372 18.3222 20.5769 18.3222C20.6191 18.3222 20.6633 18.3131 20.7093 18.2948C20.7553 18.2759 20.8023 18.2521 20.8502 18.2234C20.8981 18.194 20.9451 18.1604 20.9911 18.1226C21.0371 18.0841 21.0812 18.0443 21.1235 18.0032C21.2212 17.908 21.3183 17.8001 21.4147 17.6794L21.4658 18.4122C21.3775 18.4853 21.2899 18.5606 21.2029 18.6382C21.1159 18.7159 21.0239 18.786 20.9268 18.8486C20.8297 18.9119 20.7232 18.9637 20.6072 19.0042C20.4912 19.0446 20.3601 19.0648 20.2138 19.0648C20.1419 19.0648 20.0814 19.0404 20.0323 18.9914C19.9831 18.9432 19.9437 18.8757 19.9141 18.7889C19.8838 18.7015 19.8624 18.5988 19.8498 18.4807C19.8365 18.3627 19.8299 18.2345 19.8299 18.0962C19.8299 17.9657 19.8343 17.8275 19.8431 17.6814C19.8526 17.5352 19.8652 17.3878 19.881 17.2391H19.8356L19.2266 18.8447C19.1749 18.9314 19.1169 18.9898 19.0526 19.0198C18.9883 19.0498 18.9143 19.0648 18.8304 19.0648C18.7667 19.0648 18.7157 19.0466 18.6772 19.01C18.6394 18.9742 18.6101 18.9278 18.5893 18.8711C18.5679 18.8137 18.5537 18.7511 18.5467 18.6832C18.5398 18.6148 18.5363 18.5482 18.5363 18.4836ZM24.3073 18.3036C24.2612 18.3702 24.1998 18.4478 24.1229 18.5365C24.046 18.6258 23.9596 18.711 23.8638 18.7918C23.7673 18.8721 23.6643 18.9402 23.5546 18.9963C23.4442 19.0524 23.3342 19.0805 23.2246 19.0805C23.0922 19.0805 22.9819 19.0365 22.8936 18.9484C22.806 18.8603 22.73 18.7325 22.6657 18.5649C22.6178 18.6229 22.5589 18.6819 22.4889 18.7419C22.4189 18.802 22.3423 18.8564 22.2591 18.9053C22.1765 18.9536 22.0902 18.9934 22 19.0247C21.9099 19.0554 21.8197 19.0707 21.7296 19.0707C21.6338 19.0707 21.5402 19.0505 21.4487 19.01C21.358 18.9702 21.2776 18.9125 21.2076 18.8369C21.1376 18.7612 21.0815 18.6689 21.0393 18.56C20.9971 18.4517 20.976 18.3291 20.976 18.1921C20.976 18.0368 20.9971 17.8774 21.0393 17.7136C21.0815 17.5506 21.1465 17.3738 21.2341 17.1833C21.3224 16.9929 21.4169 16.8282 21.5178 16.6892C21.6193 16.5503 21.7299 16.4293 21.8497 16.3263C21.9694 16.2225 22.0958 16.14 22.2289 16.0787C22.3625 16.0181 22.4983 15.9877 22.6364 15.9877C22.6824 15.9877 22.7184 15.9969 22.7442 16.0151C22.77 16.034 22.7915 16.0552 22.8085 16.0787C22.8255 16.1028 22.8419 16.1263 22.8577 16.1492C22.8741 16.172 22.8942 16.1886 22.9182 16.1991C22.9421 16.2088 22.9667 16.2154 22.9919 16.2186C23.0165 16.2219 23.0421 16.2235 23.0685 16.2235C23.09 16.2235 23.1123 16.2229 23.1357 16.2216C23.1584 16.2209 23.1807 16.2206 23.2028 16.2206C23.2331 16.2206 23.2611 16.2235 23.287 16.2294C23.3134 16.2359 23.3364 16.2496 23.356 16.2705C23.3762 16.2907 23.3916 16.3194 23.4023 16.3566C23.4137 16.3944 23.4193 16.4453 23.4193 16.5092C23.4193 16.6084 23.4093 16.7186 23.3891 16.8399C23.3689 16.9612 23.3469 17.0855 23.3229 17.2127C23.2989 17.3399 23.2699 17.4844 23.2359 17.6461C23.2019 17.8072 23.1848 17.9449 23.1848 18.059C23.1848 18.1562 23.1934 18.2322 23.2104 18.287C23.2274 18.3418 23.264 18.3692 23.3201 18.3692C23.3623 18.3692 23.4064 18.3584 23.4524 18.3369C23.4985 18.3147 23.5448 18.286 23.5914 18.2508C23.6387 18.2162 23.686 18.1764 23.7333 18.1314C23.7799 18.0871 23.8244 18.0411 23.8666 17.9935C23.9643 17.8819 24.0633 17.7557 24.1635 17.6148L24.3073 18.3036ZM21.7447 18.059C21.7447 18.1105 21.7482 18.1608 21.7551 18.2097C21.762 18.258 21.7747 18.3013 21.7929 18.3398C21.8106 18.3783 21.8345 18.4093 21.8648 18.4328C21.8944 18.4569 21.9323 18.469 21.9783 18.469C22.0527 18.469 22.1198 18.4357 22.1797 18.3692C22.2396 18.3026 22.2916 18.2231 22.3357 18.1304C22.3798 18.0372 22.4154 17.941 22.4426 17.8418C22.4697 17.742 22.487 17.6592 22.4946 17.5933L22.7196 16.5777C22.6377 16.5777 22.5576 16.5989 22.4794 16.6413C22.4019 16.6837 22.3285 16.7411 22.2591 16.8135C22.1904 16.8859 22.127 16.9687 22.069 17.062C22.0111 17.1553 21.954 17.2701 21.8979 17.4064C21.8418 17.5434 21.8021 17.6634 21.7788 17.7665C21.7561 17.8702 21.7447 17.9677 21.7447 18.059ZM24.0794 18.4161C24.0794 18.2792 24.0876 18.1213 24.1039 17.9426C24.1197 17.7632 24.1396 17.5666 24.1635 17.3526C24.1875 17.138 24.2146 16.9449 24.2448 16.7734C24.2745 16.6012 24.3035 16.4541 24.3318 16.3321C24.3539 16.2369 24.3965 16.1573 24.4595 16.0934C24.5225 16.0288 24.6079 15.9965 24.7157 15.9965C24.8235 15.9965 24.8986 16.0308 24.9408 16.0993C24.983 16.1677 25.0041 16.2587 25.0041 16.3722C25.0041 16.4035 25.001 16.4456 24.9947 16.4985C24.989 16.5513 24.9815 16.6093 24.972 16.6726C24.9632 16.7352 24.9537 16.8005 24.9436 16.8683C24.9335 16.9355 24.9241 17.0118 24.9153 17.0972C24.9064 17.1833 24.8989 17.2476 24.8926 17.29C24.8869 17.3324 24.8841 17.3608 24.8841 17.3751H24.9436C24.9556 17.3529 24.9748 17.3164 25.0013 17.2655C25.0272 17.2146 25.0571 17.1416 25.0911 17.0464C25.1252 16.9511 25.1617 16.8667 25.2008 16.793C25.2393 16.7199 25.2755 16.6498 25.3096 16.5826C25.3436 16.5148 25.3748 16.4551 25.4032 16.4035C25.4309 16.352 25.4517 16.3139 25.4656 16.2891C25.5299 16.1769 25.603 16.1002 25.685 16.0591C25.7669 16.0174 25.858 15.9965 25.9582 15.9965C26.0585 15.9965 26.1379 16.0402 26.1965 16.1276C26.2558 16.2144 26.2854 16.3344 26.2854 16.4877C26.2854 16.5105 26.281 16.5487 26.2722 16.6022C26.2627 16.6563 26.2511 16.7206 26.2372 16.7949C26.2233 16.8693 26.2079 16.9655 26.1909 17.0835C26.1738 17.2016 26.1584 17.3073 26.1445 17.4005C26.1307 17.4938 26.119 17.5858 26.1095 17.6765C26.1007 17.7678 26.0963 17.8516 26.0963 17.9279C26.0963 18.0564 26.1117 18.1621 26.1426 18.2449C26.1735 18.3278 26.2221 18.3692 26.2883 18.3692C26.3122 18.3692 26.3462 18.3597 26.3904 18.3408C26.4566 18.316 26.4985 18.2945 26.5161 18.2762C26.6044 18.2058 26.6504 18.1715 26.6542 18.1735C26.6605 18.1754 26.7276 18.134 26.8556 18.0492C27.0157 17.9436 27.2067 17.8141 27.4286 17.6608L27.4258 18.3565L27.2754 18.4748C27.2635 18.4853 27.1695 18.5391 26.9937 18.6363C26.7396 18.7772 26.5804 18.862 26.5161 18.8907C26.3604 18.9631 26.2634 19.0045 26.2249 19.0149C26.1253 19.0482 26.0203 19.0648 25.91 19.0648C25.8003 19.0648 25.708 18.9826 25.633 18.8183C25.5579 18.6532 25.5204 18.4126 25.5204 18.0962C25.5204 17.9716 25.5283 17.8376 25.5441 17.6941C25.5598 17.5499 25.5797 17.395 25.6036 17.2293H25.5564L24.7696 18.8447C24.7274 18.9314 24.6823 18.9892 24.6344 19.0179C24.5846 19.0492 24.5266 19.0648 24.4604 19.0648C24.3785 19.0648 24.3126 19.0466 24.2628 19.01C24.2124 18.9742 24.1739 18.9256 24.1474 18.8643C24.1203 18.8036 24.1021 18.7344 24.0926 18.6568C24.0838 18.5792 24.0794 18.499 24.0794 18.4161ZM29.2687 16.1707C29.2687 16.2268 29.2628 16.3028 29.2508 16.3987C29.2388 16.4952 29.223 16.6009 29.2035 16.7157C29.1846 16.8305 29.1587 16.9681 29.126 17.1285C29.0932 17.289 29.067 17.4221 29.0475 17.5277C29.0286 17.6334 29.0131 17.726 29.0011 17.8056C28.9892 17.8852 28.9832 17.9406 28.9832 17.9719C28.9832 18.03 28.9841 18.0832 28.986 18.1314C28.9885 18.1803 28.9945 18.2227 29.004 18.2586C29.0141 18.2951 29.0298 18.3232 29.0513 18.3428C29.0721 18.3623 29.1023 18.3721 29.142 18.3721C29.1862 18.3721 29.2397 18.3607 29.3028 18.3379C29.3658 18.315 29.433 18.2847 29.5042 18.2469C29.5754 18.2084 29.6479 18.1647 29.7217 18.1158C29.7954 18.0675 29.866 18.0163 29.9335 17.9622C30.0003 17.9087 30.0611 17.8555 30.116 17.8027C30.1715 17.7498 30.2162 17.7006 30.2503 17.6549C30.2503 17.7234 30.2506 17.7857 30.2512 17.8418C30.2525 17.8973 30.2531 17.9504 30.2531 18.0013C30.2531 18.0522 30.2534 18.1044 30.254 18.1578C30.2553 18.212 30.2559 18.272 30.2559 18.3379C30.2118 18.3835 30.1573 18.4321 30.0923 18.4836C30.0274 18.5358 29.9552 18.5877 29.8758 18.6392C29.797 18.6914 29.7132 18.7413 29.6243 18.7889C29.5354 18.8365 29.4459 18.8783 29.3557 18.9141C29.2656 18.9507 29.1764 18.9797 29.0881 19.0012C29.0005 19.0228 28.9186 19.0335 28.8423 19.0335C28.766 19.0335 28.7011 19.0182 28.6475 18.9875C28.5933 18.9562 28.5466 18.9125 28.5075 18.8564C28.4685 18.801 28.4354 18.7344 28.4083 18.6568C28.3818 18.5792 28.3585 18.4928 28.3383 18.3975C28.2664 18.4947 28.1905 18.5841 28.1104 18.6656C28.0303 18.7478 27.9487 18.8189 27.8655 18.8789C27.7823 18.9389 27.6981 18.9859 27.613 19.0198C27.5279 19.0537 27.4453 19.0707 27.3653 19.0707C27.2997 19.0707 27.2379 19.0593 27.1799 19.0365C27.1219 19.0143 27.0703 18.9761 27.0249 18.922C26.9801 18.8678 26.9448 18.7971 26.919 18.7097C26.8925 18.6216 26.8792 18.5123 26.8792 18.3819C26.8811 18.1105 26.9004 17.9025 26.9369 17.7577C26.9968 17.5463 27.0526 17.2316 27.1043 16.8135C27.1087 16.7822 27.1163 16.7401 27.127 16.6873C27.1383 16.6351 27.1535 16.5777 27.1724 16.5151C27.1913 16.4531 27.2146 16.3902 27.2424 16.3263C27.2707 16.2617 27.3038 16.2036 27.3416 16.1521C27.3795 16.1006 27.4239 16.0582 27.475 16.0249C27.526 15.9916 27.5837 15.974 27.648 15.9721C27.7539 15.976 27.8299 15.99 27.8759 16.0141C27.9219 16.0376 27.9449 16.067 27.9449 16.1022C27.9266 16.2118 27.9071 16.3341 27.8863 16.4691C27.8655 16.6035 27.8441 16.7388 27.822 16.8751C27.7999 17.0121 27.7735 17.1644 27.7426 17.3321C27.7117 17.4997 27.688 17.6344 27.6716 17.7361C27.6559 17.8372 27.6436 17.9188 27.6348 17.9807C27.6253 18.0434 27.6206 18.0757 27.6206 18.0776C27.6206 18.1148 27.6241 18.1503 27.631 18.1843C27.6379 18.2188 27.6486 18.2495 27.6631 18.2762C27.677 18.303 27.695 18.3245 27.717 18.3408C27.7391 18.3578 27.7649 18.3662 27.7946 18.3662C27.8387 18.3662 27.8838 18.3542 27.9298 18.33C27.9758 18.3066 28.019 18.272 28.0593 18.2263C28.1009 18.1852 28.1378 18.1314 28.17 18.0649C28.2021 18.001 28.2261 17.9266 28.2418 17.8418L28.5718 16.1492C28.5819 16.0996 28.6226 16.0575 28.6938 16.0229C28.7651 15.989 28.8454 15.9721 28.9349 15.9721C29.0371 15.9721 29.1181 15.9907 29.178 16.0278C29.2385 16.065 29.2687 16.1126 29.2687 16.1707ZM30.916 19.0648C30.7281 19.0648 30.5636 19.0296 30.4224 18.9592C30.2811 18.8887 30.1636 18.7941 30.0697 18.6754C29.9757 18.5561 29.9051 18.4184 29.8578 18.2625C29.8112 18.106 29.7879 17.9419 29.7879 17.7704C29.7879 17.6543 29.8087 17.516 29.8503 17.3555C29.8925 17.1951 29.936 17.0526 29.9808 16.928C30.0262 16.804 30.0829 16.6857 30.151 16.5728C30.2191 16.46 30.2985 16.3605 30.3893 16.2744C30.4807 16.1889 30.5828 16.1208 30.6956 16.0699C30.8085 16.019 30.9339 15.9936 31.072 15.9936C31.1842 15.9936 31.2882 16.0122 31.384 16.0494C31.4805 16.0865 31.564 16.1387 31.6346 16.2059C31.7058 16.2737 31.7613 16.3553 31.801 16.4505C31.8414 16.5457 31.8615 16.6524 31.8615 16.7705C31.8615 16.8983 31.8209 17.0421 31.7396 17.2019C31.6589 17.3611 31.5643 17.4977 31.4559 17.6119C31.3481 17.7254 31.2198 17.8268 31.071 17.9162C30.9216 18.0049 30.7599 18.074 30.5859 18.1236C30.6162 18.1797 30.6458 18.2263 30.6748 18.2635C30.7038 18.3007 30.7331 18.3297 30.7628 18.3506C30.793 18.3715 30.8245 18.3858 30.8573 18.3936C30.8907 18.4021 30.9264 18.4064 30.9642 18.4064C31.084 18.4064 31.2103 18.3816 31.3434 18.332C31.4764 18.2824 31.6059 18.2205 31.732 18.1461C31.8581 18.0711 31.9772 17.9896 32.0894 17.9015C32.2016 17.8141 32.2968 17.7309 32.375 17.652L32.7617 18.0678C32.5859 18.2563 32.3989 18.423 32.201 18.5678C32.1146 18.6298 32.022 18.6907 31.923 18.7508C31.824 18.8108 31.72 18.8643 31.611 18.9112C31.5019 18.9575 31.3887 18.9947 31.2715 19.0228C31.1549 19.0508 31.0364 19.0648 30.916 19.0648ZM30.5169 17.605C30.5888 17.605 30.6673 17.5861 30.7524 17.5483C30.8375 17.5098 30.9166 17.4606 30.9897 17.4005C31.0628 17.3405 31.1344 17.2597 31.2044 17.1579C31.2743 17.0568 31.3093 16.973 31.3093 16.9064C31.3093 16.8132 31.2929 16.7365 31.2601 16.6765C31.2267 16.6165 31.1861 16.5865 31.1382 16.5865C31.0524 16.5865 30.979 16.6031 30.9178 16.6364C30.8567 16.6697 30.8056 16.7127 30.7647 16.7656C30.7237 16.8184 30.6906 16.8784 30.6654 16.9456C30.6402 17.0128 30.6112 17.0959 30.5784 17.1951C30.5456 17.2949 30.527 17.3767 30.5226 17.4407C30.5188 17.5046 30.5169 17.5594 30.5169 17.605ZM32.8336 19.0648C32.7258 19.0648 32.6253 19.0156 32.532 18.9171C32.4393 18.8186 32.3583 18.6868 32.2889 18.5218C32.2202 18.3561 32.1663 18.164 32.1272 17.9455C32.0882 17.727 32.0686 17.4977 32.0686 17.2577C32.0686 17.0731 32.0815 16.8729 32.1074 16.657C32.1332 16.4404 32.1714 16.2173 32.2218 15.9877C32.2716 15.7575 32.3312 15.5266 32.4005 15.295C32.4692 15.0634 32.5471 14.841 32.6341 14.6277C32.7211 14.4144 32.8156 14.2152 32.9178 14.0299C33.0199 13.8447 33.127 13.6832 33.2393 13.5456C33.3508 13.4073 33.4678 13.299 33.5901 13.2208C33.7124 13.1418 33.8366 13.1024 33.9626 13.1024C34.0484 13.1024 34.1193 13.1226 34.1754 13.163C34.2315 13.2035 34.2756 13.257 34.3078 13.3235C34.3393 13.3894 34.3617 13.4644 34.3749 13.5485C34.3881 13.632 34.3948 13.7175 34.3948 13.8049C34.3948 13.9993 34.373 14.1972 34.3295 14.3988C34.2867 14.601 34.2287 14.8038 34.1555 15.0074C34.0824 15.2115 33.9979 15.416 33.9021 15.6208C33.8063 15.8256 33.7064 16.0291 33.6024 16.2313C33.4983 16.4329 33.3937 16.6315 33.2884 16.8272C33.1832 17.0229 33.0845 17.214 32.9925 17.4005C32.983 17.4214 32.9726 17.4482 32.9613 17.4808C32.9505 17.514 32.9401 17.5499 32.9301 17.5884C32.92 17.6269 32.9099 17.6677 32.8998 17.7107C32.8897 17.7544 32.8818 17.7968 32.8762 17.8379V17.8819C32.8762 17.9354 32.8815 17.9876 32.8922 18.0385C32.9036 18.0893 32.9171 18.135 32.9329 18.1754C32.9486 18.2159 32.9657 18.2479 32.984 18.2713C33.0016 18.2955 33.0186 18.3075 33.035 18.3075C33.0728 18.3075 33.1163 18.2991 33.1655 18.2821C33.2147 18.2658 33.2667 18.2436 33.3215 18.2156C33.3764 18.1875 33.4328 18.1556 33.4908 18.1197C33.5488 18.0832 33.6049 18.0463 33.6591 18.0091C33.7852 17.9224 33.9172 17.8219 34.0553 17.7078L34.3012 18.3604C34.1234 18.4928 33.9475 18.6105 33.7735 18.7136C33.6972 18.7573 33.6184 18.8003 33.5371 18.8427C33.4564 18.8851 33.3751 18.923 33.2932 18.9562C33.2112 18.9895 33.1311 19.0159 33.053 19.0355C32.9748 19.055 32.9017 19.0648 32.8336 19.0648ZM32.8364 16.5806C32.9266 16.415 33.0221 16.2287 33.123 16.022C33.2244 15.8145 33.3203 15.6012 33.4104 15.3821C33.4999 15.1623 33.5778 14.9434 33.644 14.7256C33.7102 14.5071 33.7521 14.3035 33.7697 14.115C33.7697 14.055 33.7685 14.0038 33.7659 13.9614C33.7628 13.919 33.7533 13.8978 33.7376 13.8978C33.679 13.8978 33.6162 13.9366 33.5494 14.0143C33.4826 14.0919 33.4158 14.1969 33.3489 14.3293C33.2815 14.4617 33.2172 14.616 33.156 14.7921C33.0955 14.9682 33.041 15.1554 32.9925 15.3537C32.9446 15.5527 32.9067 15.7571 32.879 15.9672C32.8506 16.1772 32.8364 16.3817 32.8364 16.5806Z" fill="white"/>
<path d="M11.9616 24.1956C11.9616 24.1956 11.9575 24.1976 11.9493 24.2015C11.943 24.2015 11.9377 24.1649 11.9333 24.0919C11.9282 24.0182 11.9257 23.9194 11.9257 23.7954C11.9257 23.77 11.9367 23.7374 11.9588 23.6976C11.9802 23.6571 12.0171 23.6141 12.0694 23.5684C12.1211 23.5228 12.1895 23.4771 12.2746 23.4315C12.3597 23.3858 12.4669 23.3444 12.5961 23.3072C12.7253 23.27 12.8773 23.24 13.0519 23.2172C13.2271 23.1944 13.4298 23.1829 13.6599 23.1829C13.8578 23.1829 14.0123 23.1927 14.1232 23.2123C14.2348 23.2325 14.3183 23.2586 14.3738 23.2906C14.4299 23.3225 14.4646 23.3597 14.4778 23.4021C14.4911 23.4445 14.4977 23.4876 14.4977 23.5313C14.4977 23.5769 14.4926 23.6213 14.4826 23.6643C14.4725 23.708 14.4463 23.7468 14.4041 23.7807C14.3625 23.8153 14.2994 23.8427 14.215 23.8629C14.1311 23.8838 14.0161 23.8942 13.8698 23.8942C13.8043 23.8942 13.7384 23.8913 13.6722 23.8854C13.6161 24.1111 13.5669 24.3127 13.5247 24.4901C13.4831 24.6682 13.4452 24.8325 13.4112 24.9832C13.3772 25.1332 13.346 25.2745 13.3176 25.4069C13.2899 25.5393 13.2615 25.6727 13.2325 25.807C13.2035 25.9414 13.1729 26.0823 13.1408 26.2297C13.1086 26.3765 13.0721 26.5389 13.0311 26.717C12.9901 26.895 12.9422 27.0943 12.8874 27.3148C12.8325 27.5352 12.7688 27.7864 12.6963 28.0681C12.7083 28.0681 12.7361 28.0701 12.7796 28.074C12.8224 28.0779 12.8719 28.0851 12.928 28.0955C12.9841 28.106 13.0437 28.1197 13.1067 28.1366C13.1698 28.1529 13.2271 28.1735 13.2788 28.1983C13.3311 28.2231 13.374 28.2521 13.4074 28.2853C13.4415 28.3186 13.4585 28.3568 13.4585 28.3998C13.4585 28.4872 13.3866 28.5723 13.2429 28.6552C13.2007 28.6552 13.1332 28.6552 13.0405 28.6552C12.9472 28.6552 12.8376 28.6552 12.7115 28.6552C12.5854 28.6552 12.4495 28.6552 12.3039 28.6552C12.1577 28.6552 12.0114 28.6555 11.8652 28.6562C11.7189 28.6575 11.5774 28.6575 11.4406 28.6562C11.3038 28.6555 11.1834 28.6545 11.0794 28.6532C10.9754 28.6519 10.8919 28.6503 10.8288 28.6483C10.7658 28.6464 10.7343 28.6434 10.7343 28.6395C10.7343 28.633 10.7437 28.6232 10.7626 28.6102C10.7815 28.5965 10.803 28.5776 10.8269 28.5534C10.8509 28.5299 10.8739 28.5006 10.8959 28.4654C10.918 28.4302 10.9319 28.3868 10.9376 28.3352C10.942 28.3 10.976 28.2664 11.0397 28.2345C11.104 28.2019 11.1812 28.1728 11.2713 28.1474C11.3615 28.1213 11.457 28.1001 11.5579 28.0838C11.6587 28.0668 11.7482 28.0554 11.8264 28.0495C11.8882 27.7782 11.9506 27.5069 12.0136 27.2355C12.0767 26.9642 12.1388 26.6987 12.1999 26.4391C12.2611 26.1795 12.3209 25.928 12.3796 25.6847C12.4388 25.4414 12.4965 25.2131 12.5526 24.9998C12.6087 24.7866 12.6626 24.5909 12.7143 24.4128C12.7666 24.2347 12.8158 24.0795 12.8618 23.9471C12.7874 23.9556 12.7225 23.9637 12.667 23.9715C12.6109 23.98 12.5608 23.9895 12.5167 23.9999C12.4726 24.0103 12.4309 24.0218 12.3919 24.0342C12.3528 24.0465 12.3124 24.0606 12.2708 24.0762C12.2286 24.0919 12.1829 24.1095 12.1337 24.1291C12.0845 24.1486 12.0272 24.1708 11.9616 24.1956ZM15.2532 27.9742C15.2532 27.9475 15.2554 27.9093 15.2598 27.8597C15.2636 27.8102 15.2696 27.7534 15.2778 27.6895C15.2854 27.6249 15.2942 27.5571 15.3043 27.486C15.3144 27.4142 15.3244 27.3431 15.3345 27.2727C15.3566 27.107 15.3837 26.9289 15.4158 26.7385H15.3705C15.3465 26.7698 15.3191 26.8164 15.2882 26.8784C15.2573 26.9404 15.2138 27.0314 15.1577 27.1514C15.1016 27.272 15.03 27.4279 14.9431 27.619C14.8561 27.8108 14.7435 28.0505 14.6055 28.3382C14.5651 28.423 14.5185 28.4804 14.4655 28.5104C14.4126 28.5404 14.3543 28.5554 14.2906 28.5554C14.208 28.5554 14.1418 28.5371 14.092 28.5006C14.0422 28.4647 14.0038 28.4161 13.9767 28.3548C13.9496 28.2942 13.9316 28.225 13.9228 28.1474C13.9139 28.0698 13.9095 27.9895 13.9095 27.9067C13.9095 27.8219 13.9143 27.7215 13.9237 27.6054C13.9338 27.4892 13.947 27.3669 13.9634 27.2384C13.9792 27.1106 14.0025 26.9642 14.0334 26.7991C14.0643 26.6348 14.0914 26.4916 14.1147 26.3696C14.1374 26.247 14.1611 26.1351 14.1856 26.034C14.2096 25.9323 14.2313 25.8494 14.2509 25.7855C14.2711 25.719 14.2903 25.6661 14.3086 25.627C14.3262 25.5879 14.3467 25.5572 14.37 25.535C14.3927 25.5135 14.4201 25.4992 14.4523 25.492C14.4844 25.4848 14.5254 25.4812 14.5752 25.4812C14.6515 25.4812 14.7111 25.4838 14.7539 25.4891C14.7968 25.4943 14.829 25.5067 14.8504 25.5262C14.8712 25.5458 14.8835 25.5742 14.8873 25.6114C14.8917 25.6485 14.8939 25.6994 14.8939 25.764C14.8939 25.7992 14.8923 25.8396 14.8892 25.8853C14.886 25.9303 14.8816 25.9789 14.8759 26.0311C14.8715 26.0826 14.8652 26.1355 14.857 26.1896C14.8431 26.2927 14.8353 26.3465 14.8334 26.351C14.8056 26.4913 14.7766 26.6485 14.7464 26.8226L14.7795 26.8598C14.7833 26.8539 14.8097 26.7991 14.8589 26.6954C14.9081 26.5917 14.961 26.4893 15.0178 26.3882C15.0751 26.2865 15.1366 26.1801 15.2021 26.0692C15.2683 25.959 15.3314 25.8612 15.3913 25.7757C15.4493 25.6909 15.511 25.6208 15.5766 25.5654C15.6415 25.5093 15.7191 25.4812 15.8092 25.4812C15.8931 25.4812 15.9649 25.5067 16.0248 25.5575C16.0847 25.6078 16.1146 25.6795 16.1146 25.7728C16.1146 25.8537 16.1096 25.9303 16.0995 26.0027C16.0875 26.096 16.0756 26.1664 16.0636 26.2141C16.0497 26.2675 16.0339 26.3337 16.0163 26.4127C16.0018 26.4812 15.9766 26.5797 15.9406 26.7081C15.935 26.7284 15.929 26.7584 15.9227 26.7982C15.9208 26.8106 15.9198 26.8187 15.9198 26.8226L15.9529 26.8598C15.9567 26.8539 15.9848 26.7995 16.0371 26.6964C16.0888 26.594 16.1452 26.4922 16.2064 26.3911C16.2675 26.2894 16.3324 26.1827 16.4011 26.0712C16.4705 25.9597 16.5351 25.8612 16.595 25.7757C16.653 25.6929 16.711 25.6231 16.769 25.5663C16.827 25.5096 16.8982 25.4812 16.9827 25.4812C17.0766 25.4812 17.156 25.5067 17.221 25.5575C17.2859 25.6078 17.3184 25.6795 17.3184 25.7728C17.3184 25.9156 17.3114 26.0513 17.2976 26.1798C17.2837 26.3083 17.2626 26.4502 17.2342 26.6054C17.2065 26.7607 17.1854 26.9019 17.1709 27.0291C17.157 27.1563 17.1501 27.2913 17.1501 27.4341C17.1501 27.5463 17.1642 27.6376 17.1926 27.7081C17.2203 27.7779 17.2544 27.8128 17.2947 27.8128C17.3363 27.8128 17.3801 27.8036 17.4262 27.7854C17.4722 27.7665 17.5191 27.7427 17.5671 27.714C17.6156 27.6846 17.6629 27.651 17.7089 27.6132C17.7549 27.5747 17.7987 27.5349 17.8403 27.4938C17.9387 27.3986 18.0358 27.2906 18.1316 27.17L18.1826 27.9028C18.0944 27.9758 18.0068 28.0512 17.9198 28.1288C17.8328 28.2064 17.7407 28.2765 17.6436 28.3392C17.5466 28.4024 17.44 28.4543 17.324 28.4947C17.208 28.5352 17.0772 28.5554 16.9316 28.5554C16.8591 28.5554 16.7986 28.5309 16.7501 28.482C16.7009 28.4337 16.6612 28.3662 16.6309 28.2795C16.6013 28.1921 16.5799 28.0893 16.5666 27.9713C16.5534 27.8532 16.5468 27.725 16.5468 27.5868C16.5468 27.4563 16.5515 27.318 16.561 27.1719C16.5698 27.0258 16.5821 26.8784 16.5978 26.7297H16.5534L15.9435 28.3352C15.8918 28.422 15.8338 28.4804 15.7695 28.5104C15.7058 28.5404 15.6318 28.5554 15.5473 28.5554C15.4836 28.5554 15.4329 28.5371 15.395 28.5006C15.3566 28.4647 15.327 28.4184 15.3062 28.3617C15.2854 28.3043 15.2715 28.2416 15.2646 28.1738C15.257 28.1053 15.2532 28.0388 15.2532 27.9742ZM18.9211 26.624C19.0031 26.5118 19.0951 26.3918 19.1972 26.264C19.2994 26.1355 19.4358 25.9874 19.6067 25.8198C19.7775 25.6521 19.9175 25.5314 20.0265 25.4577C20.1356 25.384 20.2383 25.3472 20.3348 25.3472C20.3587 25.3472 20.3855 25.3521 20.4152 25.3619C20.4454 25.371 20.4741 25.3879 20.5012 25.4127C20.5283 25.4375 20.5507 25.4721 20.5683 25.5164C20.5866 25.5615 20.5958 25.6192 20.5958 25.6896C20.5958 25.8299 20.5769 25.9668 20.539 26.1006C20.5006 26.2343 20.4284 26.3964 20.3225 26.5868C20.2166 26.7773 20.145 26.9417 20.1078 27.0799C20.0707 27.2189 20.0521 27.364 20.0521 27.5153C20.0521 27.5982 20.064 27.6644 20.088 27.714C20.1126 27.7635 20.1438 27.7883 20.1816 27.7883C20.2295 27.7883 20.2806 27.7779 20.3348 27.757C20.3884 27.7368 20.4423 27.71 20.4965 27.6768C20.5507 27.6435 20.6036 27.6057 20.6553 27.5633C20.7077 27.5209 20.7568 27.4769 20.8029 27.4312C20.9125 27.3255 21.0207 27.2055 21.1272 27.0711L21.1782 27.8969C21.1417 27.9263 21.096 27.9625 21.0411 28.0055C20.9863 28.0492 20.9255 28.0952 20.8586 28.1435C20.7912 28.1924 20.7184 28.2416 20.6402 28.2912C20.5627 28.3408 20.4842 28.3848 20.4048 28.4233C20.326 28.4618 20.2472 28.4934 20.1684 28.5182C20.0889 28.543 20.0133 28.5554 19.9414 28.5554C19.8311 28.5554 19.7356 28.5247 19.6549 28.4634C19.5736 28.4028 19.5071 28.3251 19.4554 28.2306C19.4031 28.1366 19.364 28.0339 19.3381 27.9224C19.3123 27.8102 19.2994 27.7045 19.2994 27.6054C19.2994 27.5388 19.3079 27.4648 19.3249 27.3833C19.3419 27.3017 19.3627 27.2195 19.3873 27.1367C19.4125 27.0539 19.4406 26.973 19.4715 26.894C19.5024 26.8151 19.5314 26.7447 19.5585 26.6827C19.5856 26.6207 19.6092 26.5702 19.6294 26.5311C19.6496 26.4913 19.6625 26.4684 19.6681 26.4626L19.6048 26.4528C19.5708 26.4756 19.5134 26.5337 19.4327 26.6269C19.3514 26.7202 19.26 26.8376 19.1585 26.9792C19.0564 27.1214 18.9508 27.2808 18.8417 27.4576C18.7326 27.6344 18.634 27.817 18.5457 28.0055C18.5016 28.0988 18.4657 28.18 18.4379 28.2491C18.4096 28.3189 18.3822 28.376 18.3557 28.4204C18.3286 28.4647 18.2989 28.4983 18.2668 28.5211C18.2346 28.544 18.1937 28.5554 18.1439 28.5554C18.0777 28.5554 18.0257 28.5358 17.9878 28.4967C17.9494 28.4569 17.9204 28.4044 17.9008 28.3392C17.8807 28.2739 17.8674 28.1999 17.8611 28.1171C17.8555 28.0349 17.8526 27.9501 17.8526 27.8627C17.8526 27.7244 17.8542 27.5427 17.8574 27.3177C17.8599 27.0933 17.8693 26.8445 17.8857 26.5712C17.9015 26.2979 17.9245 26.0102 17.9547 25.7082C17.9844 25.4056 18.0269 25.1068 18.0824 24.812C18.1372 24.5172 18.2063 24.2357 18.2895 23.9676C18.3721 23.6995 18.4729 23.4634 18.5921 23.2593C18.7112 23.0551 18.8508 22.893 19.011 22.773C19.1711 22.653 19.3552 22.593 19.5632 22.593C19.671 22.593 19.7596 22.6096 19.8289 22.6429C19.8976 22.6761 19.9525 22.7228 19.9934 22.7828C20.035 22.8428 20.0637 22.9145 20.0795 22.998C20.0952 23.0822 20.1031 23.1761 20.1031 23.2798C20.1031 23.4331 20.0823 23.6027 20.0407 23.7886C19.9985 23.9751 19.943 24.1689 19.8743 24.3698C19.8049 24.5707 19.7261 24.7738 19.6379 24.9793C19.5503 25.1854 19.4604 25.3853 19.3684 25.5791C19.2764 25.7728 19.1856 25.9554 19.0961 26.127C19.0072 26.2985 18.9287 26.4495 18.8606 26.58L18.9211 26.624ZM19.1878 24.7044C19.3063 24.388 19.392 24.1212 19.445 23.904C19.4979 23.6862 19.5244 23.5257 19.5244 23.4226C19.5244 23.2648 19.5042 23.1859 19.4639 23.1859C19.4122 23.1859 19.3353 23.2739 19.2332 23.45C19.1311 23.6262 19.011 23.8818 18.8729 24.2171C18.8389 24.3313 18.8074 24.4493 18.7784 24.5713C18.7494 24.6933 18.7235 24.8149 18.7008 24.9362C18.6775 25.0576 18.6564 25.1766 18.6375 25.2934C18.6185 25.4101 18.6022 25.5213 18.5883 25.627C18.5542 25.8736 18.5281 26.1149 18.5098 26.351C18.564 26.2206 18.623 26.0787 18.6866 25.9254C18.7509 25.7721 18.814 25.6205 18.8757 25.4705C18.9382 25.3204 18.9968 25.1786 19.0516 25.0449C19.1065 24.9111 19.1519 24.7976 19.1878 24.7044ZM22.9607 26.1612C23.0187 26.2812 23.0622 26.4081 23.0912 26.5418C23.1202 26.6749 23.1347 26.8256 23.1347 26.9938C23.1347 27.1158 23.1217 27.2388 23.0959 27.3627C23.0694 27.4873 23.0319 27.6073 22.9834 27.7228C22.9342 27.8389 22.874 27.9478 22.8028 28.0495C22.7315 28.1507 22.6505 28.2384 22.5597 28.3127C22.469 28.3878 22.3694 28.4468 22.2609 28.4898C22.1531 28.5335 22.0381 28.5554 21.9158 28.5554C21.7399 28.5554 21.5896 28.5156 21.4648 28.436C21.3393 28.3564 21.2366 28.2524 21.1565 28.1239C21.0764 27.9954 21.0181 27.8506 20.9816 27.6895C20.9444 27.5277 20.9258 27.364 20.9258 27.1983C20.9258 26.925 20.9589 26.6896 21.0251 26.4919C21.0906 26.2943 21.1852 26.1224 21.3087 25.9763C21.4317 25.8302 21.582 25.7154 21.7598 25.6319C21.9382 25.5478 22.1383 25.5057 22.3602 25.5057C22.5506 25.5057 22.7287 25.5363 22.8945 25.5977C23.0603 25.659 23.2157 25.7408 23.3607 25.8432C23.5063 25.9456 23.6415 26.0745 23.7663 26.2297C23.8911 26.3849 24.0078 26.533 24.1162 26.6739L24.0585 27.1113C24.0049 27.0369 23.9321 26.9563 23.8401 26.8696C23.748 26.7822 23.6503 26.6856 23.5469 26.58C23.4442 26.475 23.3427 26.3856 23.2425 26.3119C23.1422 26.2382 23.0562 26.1765 22.9843 26.127L22.9607 26.1612ZM22.0331 27.9595C22.1011 27.9595 22.1673 27.9237 22.2316 27.8519C22.2953 27.7808 22.3511 27.6908 22.399 27.5819C22.4469 27.4729 22.4854 27.3415 22.5144 27.1876C22.544 27.033 22.5588 26.8957 22.5588 26.7757C22.5588 26.6804 22.5516 26.592 22.5371 26.5105C22.5232 26.429 22.5024 26.3582 22.4746 26.2982C22.4463 26.2382 22.41 26.1906 22.3659 26.1553C22.3224 26.1201 22.2695 26.1025 22.207 26.1025C22.1251 26.1025 22.0472 26.1387 21.9735 26.2111C21.8991 26.2835 21.8339 26.3761 21.7778 26.489C21.7216 26.6018 21.6778 26.7264 21.6463 26.8627C21.6142 26.9997 21.5981 27.154 21.5981 27.3255C21.5981 27.4123 21.606 27.4941 21.6217 27.5711C21.6381 27.6474 21.6633 27.7143 21.6974 27.7717C21.7314 27.8284 21.7762 27.8738 21.8316 27.9077C21.8878 27.9422 21.9549 27.9595 22.0331 27.9595ZM23.7049 27.9067C23.7049 27.7697 23.7127 27.6119 23.7285 27.4332C23.7449 27.2538 23.7651 27.0571 23.789 26.8432C23.813 26.6286 23.8398 26.4355 23.8694 26.264C23.8996 26.0918 23.929 25.9447 23.9573 25.8227C23.9788 25.7275 24.021 25.6479 24.084 25.584C24.1471 25.5194 24.2328 25.4871 24.3412 25.4871C24.449 25.4871 24.524 25.5213 24.5663 25.5898C24.6079 25.6583 24.6287 25.7493 24.6287 25.8628C24.6287 25.8941 24.6259 25.9362 24.6202 25.989C24.6139 26.0419 24.6063 26.0999 24.5975 26.1632C24.5887 26.2258 24.5792 26.291 24.5691 26.3589C24.559 26.426 24.5496 26.5024 24.5408 26.5878C24.5319 26.6739 24.5244 26.7382 24.5181 26.7806C24.5118 26.8229 24.5086 26.8513 24.5086 26.8657H24.5691C24.5811 26.8435 24.6 26.807 24.6259 26.7561C24.6523 26.7052 24.6823 26.6322 24.7157 26.5369C24.7497 26.4417 24.7863 26.3572 24.8254 26.2835C24.8645 26.2105 24.901 26.1403 24.9351 26.0732C24.9691 26.0053 25.0003 25.9456 25.0287 25.8941C25.0564 25.8426 25.0772 25.8044 25.0911 25.7796C25.1554 25.6674 25.2285 25.5908 25.3105 25.5497C25.3924 25.508 25.4835 25.4871 25.5837 25.4871C25.6833 25.4871 25.7628 25.5308 25.822 25.6182C25.8813 25.705 25.9109 25.825 25.9109 25.9783C25.9109 26.0011 25.9062 26.0392 25.8967 26.0927C25.8879 26.1469 25.8766 26.2111 25.8627 26.2855C25.8488 26.3598 25.8334 26.456 25.8163 26.5741C25.7993 26.6922 25.7836 26.7978 25.7691 26.8911C25.7552 26.9844 25.7439 27.0764 25.735 27.167C25.7262 27.2583 25.7218 27.3422 25.7218 27.4185C25.7218 27.547 25.7372 27.6526 25.7681 27.7355C25.799 27.8183 25.8476 27.8597 25.9137 27.8597C25.9377 27.8597 25.9717 27.8503 26.0159 27.8314C26.0814 27.8066 26.1233 27.7851 26.1416 27.7668C26.2299 27.6963 26.2759 27.6621 26.2797 27.6641C26.286 27.666 26.3531 27.6246 26.4811 27.5398C26.6412 27.4341 26.8322 27.3047 27.0541 27.1514L27.0513 27.847L26.9009 27.9654C26.889 27.9758 26.795 28.0297 26.6192 28.1268C26.3651 28.2677 26.2059 28.3525 26.1416 28.3812C25.9853 28.4536 25.8882 28.4951 25.8504 28.5055C25.7502 28.5388 25.6452 28.5554 25.5355 28.5554C25.4252 28.5554 25.3325 28.4732 25.2575 28.3088C25.1825 28.1438 25.145 27.9031 25.145 27.5868C25.145 27.4622 25.1532 27.3281 25.1696 27.1846C25.1853 27.0405 25.2052 26.8856 25.2291 26.7199H25.1809L24.3951 28.3352C24.3529 28.422 24.3078 28.4797 24.2599 28.5084C24.2101 28.5397 24.1521 28.5554 24.0859 28.5554C24.004 28.5554 23.9381 28.5371 23.8883 28.5006C23.8379 28.4647 23.7991 28.4161 23.772 28.3548C23.7449 28.2942 23.7269 28.225 23.7181 28.1474C23.7093 28.0698 23.7049 27.9895 23.7049 27.9067ZM29.1127 27.8597C28.9204 27.9758 28.7492 28.0773 28.5992 28.164C28.4492 28.2508 28.3158 28.3232 28.1992 28.3812C28.082 28.4393 27.978 28.483 27.8872 28.5123C27.7958 28.541 27.7132 28.5554 27.6394 28.5554C27.4875 28.5554 27.3532 28.5078 27.2366 28.4125C27.1206 28.3173 27.0239 28.18 26.9463 28.0006C26.8682 27.8219 26.8095 27.6054 26.7704 27.351C26.7314 27.0959 26.7118 26.8089 26.7118 26.49C26.7118 26.366 26.7169 26.2336 26.7269 26.0927C26.737 25.9518 26.7509 25.8123 26.7686 25.674C26.7087 25.6655 26.6623 25.6577 26.6296 25.6505C26.5961 25.6433 26.5612 25.6361 26.5246 25.629C26.4874 25.6218 26.4404 25.614 26.3837 25.6055C26.3263 25.597 26.2438 25.5866 26.136 25.5742C26.088 25.5683 26.0509 25.5566 26.0244 25.5389C25.9985 25.5213 25.9796 25.5005 25.9676 25.4763C25.9557 25.4528 25.9487 25.4281 25.9468 25.402C25.9449 25.3759 25.944 25.3537 25.944 25.3354C25.944 25.2937 25.9632 25.2621 26.0017 25.2405C26.0408 25.219 26.0909 25.203 26.152 25.1926C26.2132 25.1822 26.2803 25.1763 26.3534 25.175C26.4266 25.1743 26.4965 25.175 26.5634 25.1769C26.6302 25.1789 26.6901 25.1805 26.743 25.1818C26.7966 25.1825 26.8332 25.1809 26.8527 25.1769C26.9069 24.8971 26.9756 24.6264 27.0588 24.3649C27.1414 24.1026 27.2344 23.8698 27.3378 23.6663C27.4405 23.4621 27.5531 23.2984 27.6754 23.1751C27.797 23.0525 27.925 22.9912 28.0593 22.9912C28.1456 22.9912 28.2241 23.016 28.2947 23.0655C28.366 23.1151 28.4265 23.1813 28.4763 23.2641C28.5267 23.347 28.5652 23.4438 28.5916 23.5547C28.6187 23.665 28.6323 23.7801 28.6323 23.9001C28.6323 24.0019 28.6184 24.1092 28.5907 24.222C28.5623 24.3349 28.5242 24.4497 28.4763 24.5664C28.4284 24.6838 28.372 24.8025 28.307 24.9226C28.2421 25.0426 28.1737 25.1616 28.1018 25.2797C28.1195 25.2816 28.1494 25.2826 28.1917 25.2826C28.2333 25.2826 28.2818 25.2842 28.3373 25.2875C28.3921 25.2901 28.4517 25.293 28.516 25.2963C28.5797 25.2996 28.6414 25.3022 28.7013 25.3041C28.7618 25.3061 28.818 25.308 28.8696 25.31C28.922 25.3126 28.9651 25.3149 28.9992 25.3169C29.0389 25.3188 29.0679 25.3394 29.0862 25.3785C29.1038 25.4176 29.1127 25.4675 29.1127 25.5282C29.1127 25.6006 29.0928 25.6593 29.0531 25.7043C29.0127 25.75 28.9686 25.7728 28.9207 25.7728H27.768C27.71 25.8556 27.6517 25.9368 27.5931 26.0164C27.5338 26.0966 27.4793 26.1687 27.4295 26.2326C27.4213 26.3611 27.4141 26.4874 27.4078 26.6113C27.4059 26.6654 27.404 26.7209 27.4021 26.7776C27.4002 26.8344 27.3983 26.8908 27.3964 26.9469C27.3945 27.003 27.393 27.0568 27.3917 27.1083C27.3904 27.1598 27.3898 27.2075 27.3898 27.2512C27.3898 27.3627 27.3999 27.457 27.4201 27.5339C27.4402 27.6102 27.4692 27.6729 27.5071 27.7218C27.5449 27.7701 27.5915 27.8053 27.647 27.8274C27.7018 27.849 27.7633 27.8597 27.8314 27.8597C27.8736 27.8597 27.9263 27.8493 27.9893 27.8284C28.0523 27.8082 28.1214 27.7798 28.1964 27.7433C28.2714 27.7074 28.3502 27.6644 28.4328 27.6142C28.516 27.5646 28.5983 27.5104 28.6796 27.4517C28.7603 27.3924 28.8375 27.3301 28.9113 27.2649C28.9856 27.1996 29.0528 27.1331 29.1127 27.0653V27.8597ZM28.1529 23.9285C28.1529 23.9057 28.1513 23.8802 28.1482 23.8522C28.145 23.8241 28.1384 23.7977 28.1283 23.7729C28.1182 23.7481 28.1028 23.7276 28.082 23.7113C28.0612 23.6943 28.0315 23.6858 27.9931 23.6858C27.9414 23.6858 27.8891 23.7335 27.8361 23.8287C27.7832 23.9239 27.7321 24.0456 27.6829 24.1936C27.6338 24.3417 27.5877 24.5048 27.5449 24.6828C27.502 24.8609 27.4623 25.0338 27.4257 25.2014C27.456 25.206 27.4863 25.2096 27.5165 25.2122C27.5461 25.2154 27.577 25.219 27.6092 25.2229C27.6691 25.1179 27.7315 25.0038 27.7964 24.8805C27.862 24.7572 27.9206 24.6359 27.9723 24.5165C28.0246 24.3978 28.0678 24.2866 28.1018 24.1829C28.1359 24.0798 28.1529 23.995 28.1529 23.9285ZM31.157 25.6613C31.157 25.7173 31.1507 25.7933 31.1381 25.8892C31.1261 25.9858 31.1107 26.0914 31.0918 26.2062C31.0729 26.321 31.047 26.4587 31.0142 26.6191C30.9808 26.7796 30.9547 26.9126 30.9357 27.0183C30.9168 27.124 30.9014 27.2166 30.8894 27.2962C30.8774 27.3758 30.8714 27.4312 30.8714 27.4625C30.8714 27.5206 30.8724 27.5737 30.8743 27.622C30.8762 27.6709 30.8822 27.7133 30.8923 27.7492C30.9023 27.7857 30.9178 27.8138 30.9386 27.8333C30.96 27.8529 30.9906 27.8627 31.0303 27.8627C31.0744 27.8627 31.128 27.8513 31.1911 27.8284C31.2541 27.8056 31.3212 27.7753 31.3925 27.7374C31.4631 27.699 31.5356 27.6553 31.61 27.6063C31.6837 27.5581 31.7543 27.5069 31.8218 27.4527C31.8886 27.3992 31.9494 27.3461 32.0043 27.2932C32.0591 27.2404 32.1035 27.1912 32.1376 27.1455C32.1376 27.214 32.1382 27.2763 32.1395 27.3324C32.1407 27.3878 32.1414 27.441 32.1414 27.4919C32.1414 27.5427 32.1417 27.5949 32.1423 27.6484C32.1436 27.7025 32.1442 27.7625 32.1442 27.8284C32.1001 27.8741 32.0456 27.9227 31.9806 27.9742C31.9157 28.0264 31.8435 28.0782 31.7641 28.1298C31.6853 28.182 31.6014 28.2319 31.5126 28.2795C31.423 28.3271 31.3335 28.3688 31.244 28.4047C31.1539 28.4412 31.0647 28.4703 30.9764 28.4918C30.8882 28.5133 30.8062 28.5241 30.7306 28.5241C30.6543 28.5241 30.5894 28.5087 30.5358 28.4781C30.4816 28.4468 30.4349 28.4031 30.3958 28.347C30.3567 28.2915 30.3236 28.225 30.2965 28.1474C30.2694 28.0698 30.2461 27.9833 30.2266 27.8881C30.1541 27.9853 30.0778 28.0747 29.9977 28.1562C29.9177 28.2384 29.8363 28.3095 29.7538 28.3695C29.6706 28.4295 29.5864 28.4765 29.5013 28.5104C29.4162 28.5443 29.3336 28.5613 29.2536 28.5613C29.188 28.5613 29.1262 28.5498 29.0682 28.527C29.0096 28.5048 28.9579 28.4667 28.9131 28.4125C28.8684 28.3584 28.8328 28.2876 28.8063 28.2002C28.7804 28.1122 28.7675 28.0029 28.7675 27.8725C28.7694 27.6011 28.7883 27.393 28.8243 27.2482C28.8848 27.0369 28.9409 26.7222 28.9926 26.3041C28.997 26.2728 29.0045 26.2307 29.0153 26.1779C29.026 26.1257 29.0411 26.0683 29.0607 26.0057C29.0796 25.9437 29.1029 25.8807 29.1306 25.8168C29.159 25.7522 29.1921 25.6942 29.2299 25.6427C29.2677 25.5911 29.3122 25.5487 29.3632 25.5155C29.4143 25.4822 29.472 25.4646 29.5363 25.4626C29.6422 25.4665 29.7182 25.4806 29.7642 25.5047C29.8102 25.5282 29.8332 25.5575 29.8332 25.5928C29.8149 25.7023 29.7954 25.8246 29.7746 25.9597C29.7538 26.094 29.7323 26.2294 29.7103 26.3657C29.6882 26.5027 29.6617 26.655 29.6308 26.8226C29.5993 26.9903 29.5757 27.125 29.5599 27.2267C29.5442 27.3278 29.5316 27.4093 29.5221 27.4713C29.5133 27.5339 29.5089 27.5662 29.5089 27.5682C29.5089 27.6054 29.5123 27.6409 29.5193 27.6748C29.5262 27.7094 29.5369 27.74 29.5514 27.7668C29.5653 27.7935 29.5832 27.8151 29.6053 27.8314C29.6274 27.8483 29.6532 27.8568 29.6828 27.8568C29.727 27.8568 29.772 27.8447 29.8181 27.8206C29.8641 27.7971 29.907 27.7625 29.9467 27.7169C29.9889 27.6758 30.0261 27.622 30.0582 27.5555C30.0904 27.4915 30.1144 27.4172 30.1301 27.3324L30.4601 25.6397C30.4702 25.5902 30.5109 25.5481 30.5821 25.5135C30.6527 25.4796 30.7331 25.4626 30.8232 25.4626C30.9253 25.4626 31.0064 25.4812 31.0662 25.5184C31.1268 25.5556 31.157 25.6032 31.157 25.6613Z" fill="white"/>
</svg>
